<mxfile host="Electron" agent="Mozilla/5.0 (Windows NT 10.0; Win64; x64) AppleWebKit/537.36 (KHTML, like Gecko) draw.io/26.0.16 Chrome/132.0.6834.196 Electron/34.2.0 Safari/537.36" version="26.0.16">
  <diagram name="Page-1" id="fRTEprp9y4zwBzvZ4gyo">
    <mxGraphModel dx="587" dy="993" grid="1" gridSize="10" guides="1" tooltips="1" connect="1" arrows="1" fold="1" page="1" pageScale="1" pageWidth="1100" pageHeight="850" math="0" shadow="0">
      <root>
        <mxCell id="0" />
        <mxCell id="1" parent="0" />
        <mxCell id="UaeJ48DDTv_ZZKUGCizk-1" value="" style="shape=image;verticalLabelPosition=bottom;labelBackgroundColor=default;verticalAlign=top;aspect=fixed;imageAspect=0;image=data:image/png,iVBORw0KGgoAAAANSUhEUgAAA7IAAAKdCAYAAAAeDVWjAAAAAXNSR0IArs4c6QAAAARnQU1BAACxjwv8YQUAAAAJcEhZcwAADsMAAA7DAcdvqGQAAO8SSURBVHhe7N0LeNRU2gfwt6gVEbmDUNAiTqEgXhZvBRVEVqWIFVZEF10WBaniLoKWdfFb0YVVdgUpsooLFkXUriIKViwVRRZWab3hKsitFahykXu5FSiX+XJOTibJTDKTZDLX/n/Pk6dJZpIzyUxn8uac854Ub02llwAAAAAAAAASRB3xFwAAAAAAACAhIJAFAAAAAACAhIJAFgAAAAAAABIKAlkAAAAAAABIKAhkAQAAAAAAIKEgkAUAAAAAAICEgkAWAAAAAAAAEgoCWQAAAAAAAEgoCGQBAAAAAAAgoSCQBQAAAAAAgISCQBYAAAAAAAASCgJZAAAAAAAASCimgWxaepaYs8fJdihLD2WpUJYeylKhLD2UpUJZeihLhbL0UJYKZemhLFW8l1Wbz0WKt6bSK+YBAAAAAAAA4h6aFgMAAAAAAEBCQSALAAAAAAAACcV20+Ljx710+PBxsQQQWw0bplJKilgAgABVVTViDgDMnHnmaXTWWaeJJQAASAS2AtmDB09Q9q0f0ecrdoo1ALE19N72NPOlblSnDqJZAH8Tnv6Oxv11pVgCADNNmpxJK5b3pQ7tG4g1AAAQ72w1LX5y/EoEsRBXZr26gd4o/FEsAYBiRelOBLEAFu3de4xu7f+xWAIAgERgq0b2gYdW0IyX1/P5Ht1bUpvW9fg8QDQdO3aS3p1fSV7xye3QviF9XXYr1a9/hrwCAOiTJdvoxuyPxBLR3b9tJ+YAQLFq9T76ftU+Ps+6qRS992vqe8t5fBkAAOKb40D2500DpUD2bD4PEG0vvrSO/vBwqVgi6n5dS/rw/V8jmAUQtIFs/uSraNTIi/g8AKjYDdEmLd6gqv1y7o/U1Dr07ts3IJgFAEgAyFoMCencc+uKOdny//5Ct9z2CR06hERkAABgDauFbdpU/T2pqTlFt9/5KS388GexBgAA4hUCWUh4TZqk8r8IZgEAwKmmTc7kfxHMAgAkBgSykPAeG3MJnddGbuaOYBYAAJxo2fIsXxN8BLMAAPEPgSwkvBbN69LST7J1wexTE77l8wAAAFZNmXQVPfzHTnyeBbN33v0fjMUMABCnTAPZtPQsMWePk+1Qlh7KUlnd5sJ25/BgVvHPF5eIOeuidVyHd+ymJ85sS0837EDFDz8h1loTyXPoD2WpUJYeylKhLL1EL4v1mc2ffLVYIqquPkGrf9iX8MdlBmWpUJYeylLFe1m1+VwgazEkpHnvbaY77lrK518tuJaGDM7g881aFdKePcfomm4t6LP/3MLXxZtDv+yi586/gs9fPmwQ9Z0+kc8DuAlZiwGs8WTOox83HqSLOjWi1f/rz9f9/dnvaexfvuHz/13ah6695lw+DwAA8QNNiwEAAAAAACChIJAFSCQlYyklNd146j6LKsTTjC2lXN/zx9IisdZUsLKkqdu0zeKJZsIoL8SxLBqh7DedckvESgAAAACoNRDIAiSLsvGUESywK1lMM8UsUSEtCDMALM3rETzgDKe8soW00GzHFbNoQoGYBwAAAIBaCYEsQCIaNpu8NZWaaRnliz7xM3P601SDIHBRUSH/O3zYIP53ZpHcxzikgLIqqXxyF/kxKXgebFIz67g8biWNnmL8/IrihVQq5gEAAACgdkIgC5AU2tKo5Uowu5LmFvsHl0tpAa/FHET9HvFQVzZbsDh0c18TnpHzfcFs6bwlBrWyYZQ3bJx8HIbPX0qT8lYSZUnPGSZWAQAAAECtg0AWIGm0pQ6d5bnSdZvkGYXSzDfLQxmeXjSQB7zhNS/2tM+UZ8oqqFyeU4VVXjvqO4AFyYU0wb+2V+x3+ONDqYO8BsBUxbQFlJL6qm7qNq1KPJqASpbF5fEk3XkGAICEEIFAtpJy/X7Qgk34sQOIPKWZb9cBvcgjBbxyoGi3ua8JFqyKWUW45XlGjqTh0t/SvBmaWtnNNPUZtt9B1K+3vAYAAAAAaqeY18iW5s1HQBsHFo3wv8mwzHGzU4gVpTkv0fCcnvIMp6zvQgP7tOVrPH36ht28WAlWqXM7KVjVcqO8njSGN13W1OJWLKG5ZVJwPDmXssUqAIgM/CYAAEC8i5umxSygRTAL4BQb6maIaM47jsZoayx9zXz7Ul8l4gyzeTEb/qaP6ANbPF0bNEtcKk8Jfmc+I2dGXjRlPJVqgmMAAAAAqL3iqo9sad53uOMLYEXBEPKNuconEcSywHL5UF0Nqb6Zr8JGc9+AspQgtgvlr5kYUDsadnkKz1B6giV0KhtPk6aJIXeGjaRR2oMDCMIzsh95a+7VTStGNhKPgltwngEAIBaiFMi2o2Ldj1x/31AhehvDSj4DUJt1nbxM+t/yDywDm/kqwmpezIfkmW8QVLpbXnaOGLonT66NzX/Er/YXAAAAAGqlGNXINqJRy42D2VUb/JsXW0ge1f07g+E/hIrvqJvf89UmzNp9+/f/cb/clBGV4sHAfRs1qw7ooxSsPC2DzJbKlOt3o0DJNinXsGltpD5+25qWb6M8H8fvC3AGY7uuGGnQ5FZp5svGZe2kr1VN6cSCQyZEc19tWWvGiWB0iPR+GYwf60Z5Wr1z1e8JbVNlcFGY33VGjL7/lMnuvjSMsuMqk2HXlFBZfqP5PR20LJXRMZp+jxoK7/109JtgK5tyFU3trn+ubwr12bD5foXzWQMAgPhnGsimpRtWmYaUlv6EmHMD+8H7VFwYB1G2kjJ0P2ihyRcfZvt2p9xvxF8ts3J50ivxo5vW8in+IxxwIcHLW0BTDX6Z+fulXEzkbBRrA83MYeWr++g23iAYCcH32bBZnpXPVOD5cZZV96uvvxdz1jn/zDvbzom0IQvEnDW+hEwhGDX3NSzLM5RWFMm1pKV5PQKC2aZ3OSvP/By2pVGPy+WxIXe0cew91ooK4OT9iuZnI7pl9XX0XWdalvKd0GmluGlhQOzLPNDRY2UpwVVG3j6xNpCcOFC+8eX0HCqsfE8rx2rnezpcaUNCfR9G7jfTDfJ5nU+jy8QKfw5fl+nvucF7Ed3/L5SlhbJUKEsPZalwLlRWtjENZLdVmv3SBLetcoKYC2U/rTUo4uL2YfSrKfjU0g8guxgJvNscBpNyLxd/faTnBS1X/Ihv35suVhjZR6OnBJa1/NE/Bw0o9aR9dJJ/3FeMs584h302+IWlzfL+tCT4Z8r4fXHWlPTKKy4Rc9Y5/8w7286JbbP7iTkrNFmMi/S1t75JBKVGzX1Ny+o9kcp5RmE5mFVri5bSgGp5zm55Qc+hVB7bdobfkDtviF3Z5eT9iuZnI7plvSHmLBLfdUZl2ftOsI59twULYI04PYecxe/p4Mdq/D0drm2zXW5ab/E30w0s2LT8u2vndYV6v9h7cZ9aMxvd/y+UpYWyVChLD2WpcC5UVraJUdNis7vGjamjYdNB/z62YlrTRW7mqFWw2cWmqLEqNwT/siq+o8F+F3pdJ/fXv+aiduIRhXyhpSTpKGZJdXQMjn35pXKNWBjlgRWbpf8P0Ry3u5yx1xFf9mC/LMZavW/i47XazV7sGTnf95mZmdNfrvGIYHkQaWF+1xl8J3DDbgi9v6AqaVLAfhtT/hrNPqUp8PsrDkTzNyGA8/fT0W9CKCXLDIJN7f4MuhpJAaq9JtVBlG2ihY6/SAEAIF5FKZD171tj0rRo2K/8ksewvrTsR66H8biRnktpzuTGYkGxj9aH/MEKvBDSlxGpcllNlVpmecA+ZLqg0PDCT1/Woil+zfiki8eAjJG9ewRemDi80IpceaHeF7DDOHuwP2W8VuPmxcFkT68U7zHrDzuWJkS4PIgEd77rAr4TGBbETvdrXSLtb4X0f2058KyoolVi1ifrgoC+0tnT2THcIG6ShC8S39PREbnfLueqaOoz/rXX7Lve7zf3lcBzOPMZK31c/X43TN6LtVF/LwAAINJiVCNrpB0V+1/0+FP6X2kmu03OmK6Tr7c3hIdL5bILO23zSM/IXxlceLWjJ7RBoXThwYcg0dH+KFf6mo/6sGZZfq+XTYF3xJ1cwESuPNvvCwRhnj3YXzjZi7OnLxM1KYU0LgrlQYQ5+q4z+E5gwcUj5t/nLPB0PDyLaNobWFuXTjPcuPEVke/pGHHrtyscFZU01//GtcHNCPKki7GmNazUpPrfADd8LwAAIBnFRyCb1YXKzS5AtFkKI9D/ylRUym1IHS30fc7INK4R4IxqLCIp2uXVSm1p1HLRp9RvTFilv6h3eqi+cj2li3q2D6MhcvywBE78uX5D91gqS/Nao1KeitUIs+f7950Fm8L9rrNYa+qIUXAjzOSJ5NTJtWaoAVz4no6mWP1mmpE+HwG19Z0bGbTaaEQdOotZH2c3A+LmvQAAgIiKbSDLA9h7zfvZsLvJwbJfRkqsygUAiKa4/64zbnJqhAe2UUpcFLfw2wUAALVIlAJZk8QTQRNFGPWrYfT7Muu/5FysynUR65umea3mU7/QtWdWRLs8AHBBgnzX8X61xuOOB3AzQVDCSYLfLgAAABviqI+sH8N+NUGaILslVuU65WlEF4tZH1eyZZr0Z41YeQAQVW591xl9J5RVUbmYdYeSxEiZzBM7zSxKoFrZ1VXOs5L7i/hvl8OkUNLnI6BG3fC4q2j9ajHrYzaSAQAAQDwHskYM+9VEQazKtSSd+gUktthIE6ZViXkTvB/VMgcBaLTLA4CocfRdZ/87gY052y3UdwbDmsp2N8pcyxI7SQGt7eF84kzZSpqkrUGWvicNhzFyKh5+u6wmcbKaFAoAAEBI8dZUesV8SA88tIJmvLyez/+8aSC1aX02n9erpNxU/zFiWdMmm3eFWeAT0NeHpdnXNE91+Bw2bIJpxswIlhs4HEUVTe3uPxRR4LliF33+mSbZ8BC+JDeGr0cSUJ5E91y1LMPB6o22Z1woz2gfQd8XP/Pe20x33CUP3/JqwbU0ZHAGn2/WqpD27DlG13RrQZ/95xa+Lt7s2bCRXugsJzRq3PY8annZRXwenDuzYQO67eVJYgmYT5ZsoxuzP+Lz+ZOvolEj/T5nhv/HDr7rGMvfCervg6X/dxbIKgmLDL5fjL4bdfvVbi/oHjd63QHluPQ9bfjbaI1vP8GOx833U2LrNyHUeTZ4XH8Ojc6x//mTWHq/rLwXep7MefTjxoN0UadGtPp//fm6vz/7PY39yzd8/r9L+9C115zL5wEAIH7EbyArMfwhDSn0D3eoC6hIlRu5CyTj54SmKcvwQsMPa6Ym+jWHXZ6D90UrkQPZHavW0b8uv1ksgRvObtGU8rasFEvAhAxkJa581wl2vxMs/b9b+V7S0nxHcaECrCh/Tzs73xYDWYmb76et34RQ51li+7UZBc0IZAEAQCOumxZnTw89wH3XLPcTV8Sq3HB4RvYjb1E7seRA7x5UbGPsvbDLA4CYc/O7LubfCf5BbBwKeb6lYygOIxmTq79dNn8TQmFjB1ven1EQCwAA4Mc0kE1Lt5IiMlBa+hNizjrzsuR+UMY/fu2oSasZNGeAWHRV8HJZBkgr5cr3cu27x8G55+dQuvAIlQiFYxd8/Hk9aKimLHahYaXPme/9slleq1aP2a6Vd/o5/Orr78Wcdc4/8/a2O/fiTJrVqhX934EN9JeD5fRE9Y+Wp5el7YzWB5ucbMOmRCrrkc1firMbmpP3OVqfDSa6Zd3p6LvuyR4mZSnfCUG/R+T9Wmp9Ie2vlfQ9HzRAVr7PNEGs03PohL2yzH5bWK2ofAxy2xJjaUPkVijm3PntYthxWf1NsIrvL1gGauW9jGAQG93/L5SlhbJUKEsPZalwLlRWtolA02KAyEvkpsUA0WClaTEAoGkxAECiSqysxQAAAAAAAFDrIZAFAAAAAACAhIJAFgAAAAAAABIKAlkAAAAAAABIKAhkAQAAAAAAIKEgkAUAAAAAAICEgkAWAAAAAAAAEgoCWQAAAAAAAEgoCGQBAAAAAAAgoSCQBQBIct/+b4+YAwB/R46cFHMAAJBIUrw1lV4xH9IDD62gGS+v5/M/bxpIbVqfzecBom3ee5vpjruW8vlXC66lIYMz+HyzVoW0Z88xuqZbC/rsP7fwdQC10SdLttGN2R+JJaK0VmfROeecIZYAgKmuPkk/bznM51un1aMtm+/k839/9nsa+5dv+Px/l/aha685l88DAED8QCALCQmBLEBwq1bvo19d+T6dPGn5Kx6gVktJIZo181q69/cZCGQBABKAaSCblp5F2yrLxJLMSiBrtF0oTrZhUJaqtpUVKpBNTf2Fjh0ay9dZFfPjKhlLKTmFYkE1vKiSZvSW552U1bRROu2tlmaGzSbv9J7ySgtsl2Xy+rmscVS+fCh5xKI/186hQrwW7blTuF5WELEu6/0PfqJ7h/2X9u2rEWuIzm1Rl+rXl2tmN1duobbpbfi8HU62Q1l6KEsV67L276+h3dLvBlOnTgoVzLiGduw4ogtkBw66rdZ8b4SCsvRQlgpl6UWrrNp8LlAjCwkpuWpkN9PU7j1odLD/1RCBYDCLRqRTnwJpxmYga1uwQFYwCizdt5RyU4fQTGkuOuXFv6cmfEt/nfA/Ps8u1N+c053uGtiOLwMA0dRpP9AjY74kr3RFxP5HftMvnf/OMKiRBQCIT0j2BBBji0YoQWwXyl9TSd4adSqf3IU/JxzZ08X+IhnEarGAWXMM3ppllJ8lPzQzpz9NrZDn3VYxrT+lpKZLkxzEguqpJ37FJ+bUKS/dPXg5vTV3I18GAKJRIy+iKZOu4s2L2f/Iu/PlIBYAAOIXamQhISVPjaxSe8iC2Pk0yrDKdTNNHbGE+k53ViMbNUqNrGHNr1rr3HXyMloxsq1Y7x4WyGbkrRRLMtTI6rFaWVY7q7j6quZ018ALxBIALPvvL/R+0U+8ZlaBGlkAgPiEQBYSUtIEshWzqFun8VQaNJDVUwI2OSDc5GtGKwvcj/75BgGkQZPggOf6XqfWICqumUjZYil4IGvcxNm3zp/fPvyPQd3O7zUIyuMIZAON/9v/6MnxajALAMGx3xL2mwIAAPEFTYsBYsnTji7mMytprc0mt6V5PQya0a6k0Z2sNt9ltaTphv1a+b5HyDcKWFCYEhDEMoXUJzWdckvEom1LaYFREMsUDKGU7rMo4DDWzaBuUpmGwS9YMu4vl9GEp7rwJpQAENw9gy6krKubiyUAAIgnEa2RrZi2gDLy9oklva6T+9OKkY3EErtYfjXg4nR40b0BtSmBz2tHxTU99DUyFd9Rt04r9Rfew24g7/R0saBRsky6kDfuK2ZUviG7+wj6+iopN/VTfXCS1YXKl18a381KoyyZkj3paiUtJHXSNaH1q7n07UuzH7MaWe1+/Gsu+WPrRlJ55jT5OUavy1eTK2pFg9bIGiVgktZ130hjAo438Lm6Y7ZwjlAjG9qmzYfoxx8PiCUA8JeSkkLX92hJp52Guz4AAPEoIoFssABWTxOEGgSD/sEuURVN7T7fL7trY8pf08+vKWVg+QEBZZDgUy9w/z5O92EYyHah/NUrg2autRxY1wK1JmuxQVBoFpjKAvvcGj/fKLD0J54TJHCUA0ZRVoVZIKuWZTX7sv9rDn7MgRDIAgAAACQ315sWWw9i/fRuS8PFrKJ0XqW+aWFFJc0NuNjfR3OLq8S8rHydf/mNqaPmypm9RmsBKLOPRndaENBU04196BQED2KZmTnLaJGYh2TSlkYt12f39WFNbG01372AOvJ9hGiqXLJYDixpEPUzC/QqNtIq9rdsPGXwbMCBk1yT7FeWeM3qJIJYVnNrGMSyQFf7/HQetAIAAAAAmHE5kK2kSQFBLKuNvFe6SFen4mHiIZ2G4gJco6yKysUsU1G8yaCfnn/AWxnY7y7rAuqrXD1XfEeD/V4jq/nVvj5vkf/4ilIgOqVSzEvc2IcjG2nCNH3QDslECWiVabbv5o71YWvaUofO8tyqDRaGj8jykFyXbaCiwvD/zQlWk+r1T8rEEkjpAl0AAAAAAGvcDWQrquQaHC1tEClkT2fB3g1+NbCNqO+AxmJesZEW+GqiqmjhPJOaXm3Aa/Aaug5I99UCLZoS2DdV33xZ0rtHYLBdsNlXG+rGPgKxZtaaQLimf2DtnCSglhqSWE+a4Qtm7SeDurh96Ca4lrCmwrpxYQMnXfNdg+cbNoHWJJBiTYC1z3dj/FwAAAAASF6Rz1pctpIyUl81aBqZLl2k65M0efpcQF3FvGLVBqUGcj+tNW16qwl4pUBWX4vUmAb2UYJMg9ragk8pRXp9/pMv+Y7PPlrPAwk39mFgWFu/IUQa0ahXugScD/9aakh2PamfuCFiqYaVNtP61WLWirIK88+TxyN//lZvdP/midK0mfWZlQJX9GMFAAAAADvcDWQ96TTQoBaRmZmjD/IM+/wZbO+rgSzZrGl+2Jjyi/RB3swiudnuoiK/fqu6ZsUGNcZ2ubEPqwzPZ5BgGBJPxSzKnRYsQFWHqLFUw1qxRPQjD9L3lel9k6jpLdS0evCjDA1UNp4mmT0nXJ3bhUz8BAAAAADgzzSQTUs3iUiDakTP/vi/wFpEAzywHSEHn2pZBs2LRQ2kLkBlwWnvdPohVSwzq6ukgLcqsDaqcyPdhfI34q99VmrD3OHk3Dt7v5K3rK++/l7MWRer41rFx4M1SujEshmr2X7HSIGpdrvSdZvEnMD6nIrmul0n5/pq+LuNN6qiVWt6Z+YYlM2G0mn0CI0RTXzZc7oZBdy8n6vV/rsaSm1vwRBetva4WMZhK8meYvV+2YGyVChLD2WpUJYeylKhLD2UpYp2WV6v5UFefKJ1XNE+F05EqqwIjSNrNEyOMSvD4gwvuoEoRzO2qhhzVT+mLKulvYDm5uj7r+r2b2d8WTNR3Ye14YZqo6QZfkcTfJpTh9JhdGOqGvEb4sZ86Jogw/4wYhgd39i0pkINv2PMfL9daLgUZM8ssDf8TvDzoj+HAAAAAJDYItRHthGNWq5NXOSf2EmlNAn2MRiGZ9Uz3+qymg7PkQO+7BxtZuB9NPcZ/6zG7fTNKz2N5KaSWkETMBlwYx9WGQ431Jg64GI8eXiG0gqW4KhokFjhhydOMg7Auk4eF/C/wrMDWxinVSayJBuUzfcjgtHs6SwBk5pBWYf3cXUWILL9BiR1Esc7JlMsQxRph0Eaa/M7LXAIJT51nxW6fzWr/Zeea9jdBAAAAMCEu4Esq03t/p3BhQtL7CQFtGsMkhcFSPc1eVSUlmmzFWuCU7+gV/88SUACpcB9WxrShtWgpipjuLqxDwuMam2ZgGOCpNB7ohTAqVl7fVPQms1e0v+V/vlGtZWekfNNH+MMyg58LsugrH8On7RBs7IfC7WxCuW1+Saxrf9rDnkMkoB96SbUxobkG1uYCdJ32g+rWTcdQkkZg3iE3HoikBQAs1p8AAAAAJvcr5EVWYqV/q9aRuPAds1sKOZU+ppWP7pAzmDsWQ2l5lYr+5HAYLo0b77h65WDT+lY/AJKN/YRwD/zscnzjY4JACBci4rkgHL4MLmGfmaRWfCp0jUPNxh2yXjMcOlrcVp/XguLMYQBAADAqQg1LZYYDEmTkedXY5rVheb4j7/KeBqZ1tzqA1+jsWcVfs2KFZ5Lac5kg22MhtAxCz7d2IcTw27AMCUAEAFKduxB1O8RJRHX4uAtSErG+oJYPg6wQU08b5a+ZpyFljgAAAAA9kQukA1FCmLLl19q3JfPdBgf7ZiwMqOxZ7msRiSn/wnkGdmPvEVBan0tcGMftthNKAUAYJVvXF8PZXh6ie/fYM2LN9PUZ0ST4GGzg99gY/3A/YJcbTNws1pbAAAAgGDcDWR795AuTO4NHuCxAJY9xyyI5UxqWrVjwiqMki9Jug5ID57wRnmtQRJRccrrrekR2DfVjX0oWKBq2IeYZSmWtkUQC4KV/qIAdijNirsO6CV9b7aVvn/FsEtmzYt94xWz7g7W+0QDAAAAuCVCw+9AUEaJnFDjakvSDL8DEHMs4zDrq6oZosg3LNQgKq6ZGHgDjmUa5kmaTB63Qelny5ono+sEAAAAWBW7psUAABB7vmbFfdUWL5aaFwMAAADEDgJZAHAFH4bFdJiVBCTGN3U8xqlm+27TNouV8UffrFhhoXkxw/rUilkAAACAaEIgC5Bg5HE7oxU0bqap3eM/GHOfOr5p0CavIlg1DHTZuLoiY29p3miaGjjAdhxQshV3oYF99H2uPX36hs5eXFZB5WIWAAAAIJoQyAKACRbE9qDRIqmPPx5Qd59FxvGZCIAdBtvKOKOxCp4XjZDHN+06eVmQfptqsGuKZewtYuOyrqTR95mdqxhSmhWz19dJ3CBRJt5HljFoXuwRQ/TQOloflwE6AAAAJDsEsgAJho/NyYYuMRi30z3Bg1gme/oyyqfxlMGCHilgzciUm6LKQSjbdhAVR/Q1RogyPmrWOJpjkBlaCbJTeIIkC3rnUj7rb1o2nibFWX9TpVlxKAHNi319aKUAeEoSNScHAACAhGEayKalGw7kGpKT7WpdWZ5LaQUfjkczaTIWJ+xxhRDNsr76+nsxZx3OoWrRCDmIZTWS5ZPlADVQWxq1nAXVs2l4wRDKyFtJxP9mUjEfI9R6Ntv4OYfq+KjDHx/q6zMaXlnSeXqc1cpKAeEzoWtlI3NcRpbSAN6sWG4+rYzrqpt4bbLEr3lxWvpdvmNi73nQPsQsA/KIpVE8rmieQ5TlD2WpUJYeylKhLL1EKMvrtTzIi0+0jiva58KJSJVlGshuqwxSFROEk+1Qlh7KUjkt68orLhFz1sXquPTNaNlQKJrmnan9dX0r2XZ2m93afX3KcCgsiHV7rFpf/16/afstE8Uz5CbJPCiWlOb10DxvrC+YYvvZvn275jExaZoyK2XJQZZ6XuXt1H3p+MZHHUT9NE2KtedQGceXTcXDxEoTvu18tbILaWGISNbu+6WwvV3JYqpmf7PG0Riz5tO9bxJjZOubF/OylGOSzMzRn3sFfw9EE+WoHZcEZemhLBXK0kNZKpSlh7JUbJuUlBSxZF20jiva58KJSJWFpsUAcUIO2vybq7K+i/pgNpKUIJaGzbYQxIp+sOw1S8/nQZ30t3zyOurDg0b/YFFJLGSgYEiQ/rb+bO6niCVk8j+vhdJrDAxmK4oXyv1Ch90U1tiogZQswCtpbnF8JM0yzlbsryeNETXygdmLWY38Ml8wy8+9uFmgTPyzZEBtnq0+hwfDfF30Pu8AAACQuBDIAsQTKRDUNu2Ua/ysJgryr80NNekDOW0Qa6X/LW9+TOOonL1WzfOVGsviYVKw6F9LlyWer5tmy7V+vA+p3FxZac7MaoXV52maKofcD38WN7NACth0zxfPk4LZCX612uXr5Jrg4Tnu9+31tM/kf0vnLYmDpE/m2Yr9Bc9erGleLtboKJ/nROwrDQAAAHEtRbrIsNzo+4GHVtCMl9fz+cn/uJLuHHgBnweItldnl9O4v34rzxdcS0MGy6NZNmtVSHv2HKNrurWgz/5zC18X71jtFGtKa9yUlwWnrDaxC+WvmU+jPMGerzzXqkFULIJDZZ9GQWzw16figTBZC4L9+ZdhtUx/2u2eWNeDB+ZGw+cYH6+S4Eo916EowX/QIXoUrK8oa2bLgurlav9bAAAAALDPViA7LPdzmvXqBrEEEB8ef+wSenrC5Xw++QJZNXuwEiw5DfKC8QV2FpiVaz2QNQ+4lX1bO8bg+wkWyPLxX9nQOdEMZH2vV72BAAAAAADO2GpafPNNrcUcQPx4/oU19NnnO8RSsmlLHTrLc6s2xEffSjN8WKBgQSyrkeRNmu3UGhtwaz8BNtFanlcgkzqguhQAAAAgrtmqkWXeeXczTXj6f7Rq9T6+XKdOCt10Yxqln1+fLwNEy7Llv9C69fv5/DnnnE7FRTdRvwFLkqxGNrDWLxI1ssG4U56+9tS/BtO/DPMyre8HNbIAAAAAyct2IMuwoZQeGfMlTZ32A19OTa1D7759A/W95Ty+DBAN7HM4LPczemV2OV9mwSy7sbJ///Fa2rTYvKmtMWsBVfDXZ5ESOJr0D/Uvw7RMG/uJu0AWfWQBAAAAXOMoazEbSmnKpKto9MMX8eWamlN0+52f0sIPf+bLANHAPocFM66l+4bIiZ4OHjxBBw4c5/NJw2Rc04TVuZ07AZxb+9FRmnGvpLWRSCtcUSEP7QMAAAAAYXNUI6tgNWJ5j31FU6auFmuIWrY8iy7v0lQsAUTH99/vo5+3HBZLxD+DX5fliKX4ptQiBmQMVmrwpFltzaQrNaQ2uFKe5lj8ay+VWk3GV4ZZzauN/divkVWPNeC9MGGnRjba7xsAAABAMgsrkGWMglmAWLulTxtauOBGsRTffMGTGb9gLiEDWYk20NTrQsOHsfFetWUYNZOWm0KTxf04CWTVQNm82XXw98usWbL9ZssQGbihAAAAkBwcNS3WYs072Ziy45/sQvXrnyHWAsROp46N6JWZ14mlxNF18jgaLuYV7GLbmyT9KVlW4/LJXcSSwALJmvk0JlMs+/SkGWvGUVexpGVvPzZ5etHALDZTSAtK+Bp3lMzg/Zwpqy/1jYs3k90oYJmf7UxjaZHYOtmwmyz8GEcsFWsAAAAg3pnWyKalZ9G2St45zxYn26EsPZSlqg1l2akhSqTjsiOuyjJo1hxeWW8FJOwKJmLHpWM3MRij1lI7eY3ROS5ZsG2M/t98rQXqNSFv1bd8nVXxclzBoCwVytJDWSqUpYeyVGybrZtLKYXV3tkQreOK9rmIp7LCbloMAOFBU8f4owQ2rrwnZv1941Bt+Czi/w0AACA5hN20GAAg2WRPn82beZfm9aDccJoYsz63LIhlfWdfSY4m4gAAAADxAIEsAECAnjSjaBCfm5mT7iyYZTWxvqzT+Qmc4IklqpL7kJqdB1bLyfuYdp9FbOQiZbnbtM3Skn9/3P401Wx4Ixb4657Lpsj3zdW/XpXSd1Y+bv/jSN4+wwAAAIkAgSxAjHlGzidvTSWaOcab3hP5+8KmUP1aDWm2T+z3ti2NelwE9c/IgareZlo4T87iPPxxfa0zq9FOCeiLu5JGdwoMZnnQKAJ/vULq4wsmY6RorMFxsNeFYBYAACBWEMgCAEBwvW+SM2qXLaSF/pFsxRKay3IxZI2jMUYBP88oLQf0bCoexlZKwex9alDMakR5siXWj1jzXD75asaVoNFuxuXwg82ZBaKPs+91yU3PWTA7wa8WFwAAAKIDgSwAAITQk8bwIY9W0txifeBWUbxQbj49oFdAH2CWUEk3Tq9E6X+sBsVLaVLeSvNkWL0niuB3Ha0PrA6OCpZtWj8MlnI+iErXbeJ/AQAAILoQyAJARJj1O4TE5OnTl4/rW5o3Q1PDKYJQ6kID+1htPn0BdeRj9a6ktSwwrdhIq9hi2XjKCKhNlSdeW6s8n/Vf1tbYhpzkIYPc5mkf7qDFAAAAEI7IBbIs0YnBBYm2n1PIC11N4g/T/lFKOUYD2YvHYtq3CiAUk/8VZYrbQBD/X7WLpxcN5AFoIS1Q3vOSxXK/0WEjbSSzaksdOstzqzZIn+2KCoN+sQAAAADBRSCQFRku+ZATgVgGUCWzpXJH27RpluYCh1/wGFhUJJczPEfffI33ozJ5DQCJhCfMEf8z8QP/X7WPJulTkXzj0Pz715qL22tqcf360hpNjpJuAQAAQFJyPZBdNKIHjWaJP9i4iWv0FyHlok+Rj5JApGCxYTIO5SKJKZ23xDBb5vrV7G8X6ihqA5Ra3sAMkwBxzuBC3vc/UzaeBsdBzSz+v2o53Xf2UlogEjQZJnkypXxvCx4Pb7JMqzdavFkT/WRPAAAAEH9cDmTFhQ0PYucHNDWThxlZRvmiWZnaV8ooiYe42MkaRMPZc8oqqJyv1/Bly+xLfS03awNIHOx/RglmjW/mAERTT+rHEy+xoWfkmxlGSZ6CUr63aRD1YwGwpx1dzBbLxtMkNFMHAAAAi9wNZJWkHUG1pVHTleyPbanvAONMmMrFTtcBuTSGP0fTL0uhND3u3M53IaWMyckmOdMlQGLzJZXxu5mj72PuX0sVOE6nG1z5/9L0CUYiqMST/cg4uQaVG0RPBBkjN6DbCMt7IMaK7To5VyRhUjMAs64nhp8Jni9B+UzHR7InAAAAiC13A1nlzrovu2Ropv1kRZDK+lApz/HvJxtu/yyAhJLloQwxq8X70AY09V1JoztFJpgNCwtIeN9auevBiiBBEMQpX9InybCbggeJBUN8Ny34JIJY1hx5jua9ZzdIlBsj8udZs412OwAAAADBNJBNS1euVOzoSfPqyXPapE5B9b6J+CZ+/WTlIFU0PRP9svRNKzfTXXPYX7V/rBXOjsvZdihLD2Wp7Gzj6yveuR11N9vOr3+tHBRIwex9s6iFbxu7fQs72u5bGPS4fLVxgV0Pkun90krWsp5kI+5IQt1E7Dp5nNynVoOPLWswXmz2dPbZFWPM+mNjzNYEdlcx4/S4vhk/QMzZUPiImLEnWT8bKEuFsvRQlgpl6SVCWV6vVyxZF63jiva5cCJSZaVIF73235mgWNZiJeGTH3ax7Tc4vvp87cWtWEfKAPnKcwZRsdJMTLkoNhtEX7JohDz+IBvMHtkuIW6xprasltLg/0P5DLObOr7PvsCaFmfkreSBQWDNJgtaWS2t9v9KWWdVYJlaof6/dK+vzxLTIBYSjIXv3uCfTQAAAIDwuZ61mPeBXc7urC+jfP9AWjQz0487adRPdhOt5f1jlSQiynM0SaEM+scCJDT/ZpjSJAexLPiz289PSaSmbeYfq76FSyhXNA0dXoQgNtEtmiK/l7aTPAEAAAC4KAKBrEIJaJVJbTI2M0ffd8/Tpy9PHuLrJysG2deOMSj3k1WD3YoN6/hf9I+FpMabDDsJ/tpSB5Ed3GwM5mgpzRsvaoHtdQOAOFQxiyaIFgLBkjwBAAAARFoEA1l/rDZICWb9kkEpSaJEP1k5SBX9YxVKP1ke7G6mhfNYJy1cGEMS0fZzXSMywxYMCTuzr/aGUGwMonyelZYloMKYnolMqY0NmeQJAAAAIMKiGMgyyhiE/rVEynrWdFgEqQEZWkVTSR7syk2PMX4sJC3PUFpRNIjPsiyu9oNZMQ6zjt1kT+4EnWyYlVEj80VXg0LqYyUJHMQlOSGTNAXkOtBThmlC/1gAAACIFHcD2YpZlBv0gnspLeDN0gJriTIylX6yS/z6xyo0/WSnyU2P0T8WklrviVQuxtdkway+b3kIYhzmgJYNMcO6GogWGWXjaTDGjwUAAACAMLheI7tKjAEYeNHNMg+LjKlZ42iM38W1r5+s6E9n1BxS6Sc7Og/jx0LtoB1f079vuSJwDGZlmBu5NlRtAhqrZE8KqXzRZNp2YA4AAAAAoBGxpsV8HFldM0VlSJ4ulP+KwZANSj9ZzqQWSfSTlRn3j2XDPihlyhlfta/FOBAAiGesOadvXFijPqb+2Y5FEMtuGM1xuWln2P9fnqE0R9QymwXmAAAAAAChuBvIsn59rCZH9O0LEDQDq9p/NrB/rEIZUkSC/rFQi2RPV4azKqQ+fgFj18njNDd4ZGz8Tq/JGJ+xptYys8AcwWxcYGMZKzdCNFOtqDUXx+7oWJXzFrTfN2uNVIvOJwAAQJSkeGsqvWIeABIIqx3NyFvJg1Yk1QFnWJCltJYxkTWOysVNkWh95qL32WYJ0OQuL8OLKmmG3f7kLJDNKdSdo0DqOXZUBgAAABiKctZiAACIF4tGaLp8rNH3kVYSjSUjtYm8yNsAAAAACQeBLABAraRkkWdBbGCXD3kInWWU31msAAAAAIgjpoFsWrrSGdUeJ9uhLD2UpUJZeihLhbL0bG9XsZFmi1lzbWnUdNZkVu7nyZr7MizrtFyjySY1AdmiEco6v2nEUt3rU2pElfGR1e3+QLkWygkl1LlQxrllk5IVnHF67m2rmEVn+o7LeDIaOzpqnw0JytJDWSqUpYeyVMlcltdrvydmtI4r2ufCiUiVhT6yAAC1kp3+ocH60g6iYj5Uk7o/Q0Z9bYcNIioolLNsc7fS8KwPaGbQctzFgmiWgTuqfWQ1Q2SZQd93AACA4NC0GACgVlIzxfMhlIJm3m1Lo5ar/WZ5Vmxff1pNcMkCOt96ZZotZ9UuG0+T/LL2lrIgVrfNCzQjZDksYA6swTSfrNfkOiYdW4Zh2WwyuAGgZPj3m3z9kqVz4vbQWQAAAMkGgSwAQC2lDusk8Q/GRiwVD1jVUwpCjWole9IYEaCt2qBvLssDVdOazFqmZKxoUm0y1joAAADoIJAFAKi15JpWntTJvytKwRAe0Nof+zSwxlTp8+oOKWA2qM00n9xvjhzAsCZamQzObQDpnLEmypLhRWZjrQMAAIAWAlkAsEwdtkRMojmq2Xon3NyXU/7JiJKfEtAqk2gOLJmZ05+mWnkDWL9P/p5hSBt7WB9a+ZyxGmqMMwsAAGBN5AJZlgRDezEqJv+7+75slbabscWKtrbBTt8rk35dVi7Sxbm0XzMC4B4lQY+/SpP1TpiV4QrD7ySLQVqtw2o9lWB2Ja0NeY6k7zdN8iKW1EhbK5nMY9KGq2LaaLkPLfrFAgAA2BKBQFYepoFncjQQOqlInCtZrKltKKQFFoJLOVg3qaVQ+qWZBvJqkzMAO9ytVVxKk0SAqQtSlrejuYbrnfTxMysj/P6C/FwY/h+tpNGdalPNqx1qMij/vq0BlO9F0cQ2srWKJjcFTacoJHtyytcvdhAVo68wAACALa4HsotGKBka2SD7motRaTK6K589XTw+vadYE98WFYl+TGzYCMnMouA1ycrQDtyw2brzwSbtGIZaShCCZnoQFyo20ir2VwpUxmiDFLP1Tri5LyMiyFL//9S+i6V5M+I32ImUilmUGzSAX0oLxHfXxe0t1hR2bodgzCrWFNvXLzYK/XgBAACSjMuBrHLhw4LYwIQV8iD00sVjZ7Ei4SjHN4j6PeKhrmy2YLH5BXDJWF8Qy2uYDIJ1HsivGSfvCyBeVVTIzUb9AxWz9U64uS8//LsnoMaL9QtVms9aa12RbFbl9eA3zAK7Laj9NrU3FjztM/nf0nlL9K1qPMr34RDD7iN2m4ublsPFYbIn26Tze5/cFBv9YgEAAJxxN5BValSCki4ep6sXlGbNH3XrfUlE5En7XLXmkk0R7u/maz7noQxPLxrIa3PMLoClC5VnRFPGYbODX6iwMQX9glw56JcvxMxqbSHJGPTh1H7Wlf7khn2llW15E3W5eb8SPJSKYEWe1GaW+v8deTJqYsvLVZrliky2vslwvf2mnOZlRLpZ6AXUMWRGWQ3Ne2R0rhIV7/LhO+ds0rSs0Q4F0/sm35iw6lA90nskfYc9oR2TVrOvPgVdaPgwm31kzcrhD4ZP+9lXbjaqrzvy/aZ9/WIl+v9PzZQweSMAAABiw91A1tOOLuYzVpKDWDRvNKVokogw7IefXcwH3uln/d0idxGiNCvuOqCXdGHXlvoOkC/ODJsXVyyhueJCZXhOYjSbhlgx71fOL3Jdv6DVB7pavLxE7sNu2yZaKwK2jqGqgX1NQeVuEysSPTEPu4HGbpYVyd0kAvCuEP4ta3rSDJMWJKx1SUD3EbGPMXIFqw3m5QAAAAAwLjctVpODuJXUqbRMutjW9C1VLpTY/tmddDUpjNLfbSXNLdbWlLiVGERtNj2wj3wB6+nT17x5sdJMkjVDRrMxCEJbO6NLcqT5vNsjD6WibMuaLqr7nEgZvvL8+rErgUPZeBqsqW3kzd+VYMe/n7fhevtNOc3LUPYVoQQ/vuRtmdQhWCDLglh+Q82420RC6z1Rc741k1neAiUA9k3q+61tSaLdh7JeCf79lw0FKSdcAa9TN9l4f5VzFzRRkzq0kdIyJ3j5YkqQvBEAAACx4nqyp+zpmsHfdc3CpMlBzRK/CNf8oHtGjhR92gZRsfRjrzbZlS4WHpcvhEvXbeJ/XeVrVtyX+ipXLCGbFwOEos/U698EnV/wunpBq5RnEJCxwEEEs7Uj+ZHa/L/r5FzzICmZg1gAAACABGUayKal2+k4pkpLv0vcfdYEtArR9y288VCVPm3r6K7WVl6jPjFIq1at1DvehpPxXf+md2mbFStCNC9mWH9aMWuVk3Pv/P1CWYqYlOWrEYxczf034weIOYnRDRkt380Zq/9fepE7h4EJfoL/L5vX3ill+TKsD5sdpGZwiW981OFF9oPYsD4bNqEsFcrSQ1kqlKWHslQoSw9lqdg2Xq9XLFkXreOK9rlwIlJlmQay2ypFW0eb1O3U5lTypGQHZc2C3enH+tdl9l+js+NaSgOq2V+1WbEiaPNipqyCysWsVU5eY/jvl3UoS8+Vshzc8LDq8nHzxJyGaWbgttSBZxVfSXfNSrBzaBHbjiX74Ul+2JA8QWq8S/PGixsNFvrQGoj2cdmFsvRQlgpl6aEsFcrSQ1mqZC4rJSVFLFkXreOK9rlwIlJlud602ByrUVGCWReTQUWDr9aMJZPSNJVmky8RlV/zYmU4ClpH62tP5hyAuMeCWDnR1SAqDtq3kRlE+byvMfvfj3QGZQAAAACwKoqBLKMmg1q1IVpDV4SfJEbJVhyKrnmxr4mmdAE8xe2ss5B0HNTch2X1RpNEbJtp/Wr211kNZOS4k+zJF8SymlgLyYNY39lRI/NFN4lC6lOrMjoDAAAAxC93A9mKWZQbdGxFJfMv0cXtg2SrjCvqa/bPKOublGyruubFavIp1jc4aL9glkwGYwbWTsp4mTYShoV1E8g3PudCWmgUkfmGjQqRxTcB+YbrYkFsyJpYLdZNQrQm8cvoDAAAAACx4XqN7CoxuHtg4MbGrhwiEs2MozFRG5ImMElM8MmvlsaXHCfIazYLRnrn+hJe8eGIDIJVdnHtP04u1Cb6IasC/m9Kxvo+N9k5Iiu3X0Zh/hkyGIPW014evLN03hJNLWJPGuNrKuvXV92XnTdEFt+YCO//mJ0j3ieWDe1jK4hVSOX7Mjr3CDNhHdRGrDUA+23shhshAAAArohY02IeuOma+okMoWwIi1ecXEjGhtKsWJ+t2J8SHPg1L+Y1OZrszSJrs3biF9cGlIse7XPUc+pOsiyID9ohqwL+b7QBquaGSR/Nc9jno2uW/PnT8dW+aofBGkvlvqayfn2+lRsqWeNoTrDxPROO0lxaYvA/qE4h+sB6htIc5f/cpYR1cYPdMDE4J8kYsGu/W7VT0ADT4PxE9Nwo5QVtys5uDkfhtQAAAMQpdwNZZQB7pamtP1YbYmew+ZhTmhUHZiv2Z569WMnerGZt1uHnRHocg9/XYuIzYvB/ox9HWZswTSGPp7zicbn2VU+tRdSTyysXQZkWL89RjWXtwMb1LeY16AY12glJBEMGNfoMv7GiCaYSvVbR10faAKtpNwoc+TEbnB92blC7CgAAEDspUhBlf2AkAABIeL4m16ylzBr9TUZf0KfpU6ysYzc8zMfejV/89c/rG9hHmtWAimCV5UKYoXQj0TS31633PT/wvJmxde6U/Qftz81uQsgtnXSvDQAAoJaIctZiAACID2qLE6NgjNU+e2uWUT4fVzg58GMyCgx7TxQ17fpkaoumiOb2w2brA0Xf81fS3GLUygIAAMQCAlkAcBerxRL9CK1N6PMdExUbaZWYNdeWRk1ngZ/cBFlplsub4freP33fYt4UV/f+GjfBVZ4nP+Y/vFK0PxNqP2o1o766bnhOYNcPX/I1XTI1BzT9b8Nqqmzh/w5NoQEAIJkgkAUAdyl95S1PidRvPol42tHFfGYlrXUlaNQHu1pm/U8ZOSgWGe19otsHedEIkYxQl51+E60VCQoNx1T2eOT+5+GMAc2CT18T5cqEbK4NAAAQKwhkAQBqJf3QT8Ez5OoThPGkYL4bEfJQRxXTRquZ6aWgzPe4knAs2Bi8StI7MfkSat3n/5r8a25DTeaZqPmwVeJ5PPN3tBOd+frfBulnq8s47j8pIwEIJjeQfEndki4bOQAA1HamgWxaujJmjD1OtkNZeihLhbL0UJYKZek52W7oh83V4cH8gyaDca8V34wfIOYUS2kSr4k1CMpYgCUFs6nSrP8YyAwPIP2ytmdPF9m5yxbS5a2dnQ+7WBPhFtpz6Gt6nUkdDGtklRrtebTebs2xFMSeGSqIdUPJWFFDnmp72Ltk/cyjLD2UpUJZeihLxbbxeu3nxo3WcUX7XDgRqbKQtRgAoNZTM+D602bENc28GzLLrrJ/NXALnsU3yhl5fVmI2XBWcg2zWmOqWafDaodZk2hrwah6vOPo4rzxvCm16bG5krVYeX1ROocAAABRhqbFLtAnLQEASDTKeNfKpI5XPDPHRl/Vzu1Mgq621IFnP7baH1d5vj6LcMT4shAXUh+lJtpX47rOuMY1VI2tiVIRxJr2vXUFC3LlIJbdKEAQCwAAycjFQNZu3yU2mfdfSnS+/ldBmucBAMSnnjTDF8y6lQzKGTWLcGQpWYhp9cbwshCHNIjyeb9VltAqMr+Bvv7K6BcLAABJDDWyAABgQE0GZblW1DQIVIaysVoLqQ59o+desid/FRvWiTnFBdSRd88xCeQrKuQxZrM8lMFXWNN1ci6NGpkv+iYXUp+gSbYc8PWLHUTF0UxeBQAAEGUuBrLsDr62aZo8GWe5VCajfkfJIXu6OEa/JCYAAHGhYhblBu0OsZQWFMhzIWtFe9/kS8600DDoW0Jzef9bi81wfc8fRP2i0ix2My2cJ4YN8jWPbkt9B8i/XzOLAlvWLCpifWql37YBvRwEi6wpt5LQKkg2Z7t8w/mwfrHJ+/sKAADAoEYWAKCWWsXHcE2n3BKxwkftY6kdW9XTPpP/ZRl+9fFqTxrjay7r16fWlzRJro30D65K120Sc0LQ5xvfMDWftMGcXJtrlMvAN44sS9z0iHrz0dOnrzx0UMEQ/TkqGcuH7GHPH9jHadNd6VjE0ERsLN3A98Au6T27Tzlv6BcLAADJL0aBLLtIkpt+mf14KwmUlLEN9QmV/JuXBUlGwi6KdM9lU+T75polgFL6zsrH7X8cydtnGADiFx9HVvddpAnstMO2+GpetUP1yN9bHl9zWRbMavYlglLT/ppSkKiWa+H5YWJBo648aZKDUlaLGTh00BzRqkh3jkStZ9fJ+SGzFQel27+NpFoG1HF8jY+RT8jZAAAASSRGgWxbGvW4nFhj5jNG/YPUZl7DH9f38ZF/oEVNgY9BLYCEB43KRZFOIfWRftTDvwMehqKxBsfBXheCWQCIAja+K6u1LBJJjvwNm03eGv9hZdRaxEBy5mOlO4kW71pi0l+TDUejZEhWBHu+c6w2d5k6bq4OG2LHeIgaz8j5hueIDWkTOGyQfWz/csZk498xAAAAMBbxcWTVsfP8xwpktZEskDMYg09pWqYZQ0/ZD8cusDR9T1nAyu+oGz1fs84nYMxA5bVYpR9X0OgYzY7b91oZ3WtTX0PguQIASC7mvw0AAAAAocWwj6zap2pusb75bUXxQrmfj0ESDXbR459AKXu6kjRDSTSylCaZBbGMb8xAk/EBo4DdzdfXOCjnw6DPGAAAAAAAAPjENNmTkkijNG+GpjmtCEJtJdHwGyZBGahe149LP8m1osqwCuEkEHGPkkgFAAAAAAAAzMU2a7GnFw0UY+ktUPqrliyWm/gOG2kjiUZb6tBZnuPjHSrj+wEAAAAAAEDSiW0gq036JMbpU8bmG57jbPxV3XiHPFmJUY2qOmGIAgCA6ONJlKTvYPSPBQAAACdMA9m0dMPUjiHZ3q73TVSP/S1YTItIDMCfpY5bGIxa1mZav1rMMh6PnFVz9caAjMjGr89/GJxQU4QzCxc+Imasi9r7JUFZeihLhbL0UJYKZemhLBXK0kNZqmiX5fXaz3+aCMflBMpSsW3i+bMR7XPhRKTKimHWYpUuk6/E6LlB9+MbQD8wCzFLqhS61jX6WYsNX5eSTdkvKzMAAAAAAACoYty0WJb9iHZcwkH0hEnAywRk9PUFsSwAzhXBpZoBmA1i322aPisyx7ZLVcbsi49kTwAAAAAAABBaXASyatInybCbggeJBUP0zXxFEMuaI8/RBMDqIPMsK3IP/Tba7QAAAAAAACChxEcgqxEqyVPXyePkMWM1WPNd/ZissuzprPZUjDHrj40xWzPfRmZkAIAkw7oz+N/kU6buswJyDDjBulPw/Y2QE/olOtZtJOBcWTk2ca5zlQz9AAAAEJaI95G1RGkezIJLg4CUsdLXFgAAbFD65QdhLc+AOV8OhDD6/sfH9/9mmtq9B40uE4sB9LkT9OzmbQAAAIBQ4qJGdtEU0cd1QC/DIBYAACIoYKiyZZQvunvMzFFyCTgjt4yRpgRPYFcxbbQIYrtQ/hrtuVJa/RRSH7+aWbX21k4yQQAAALAi9oFsxSyawDMWB0/yBAAA0dKWRi1XgtmVNLfYIGFerbKZFs5byeeGF/l3SelJM4rk8dCNhnwDAACAyIh5IKvUxoZM8gQAAFHUljp0luf8s8Ub9RM1zA4vUZ6rfVzpNyv3F/Ufx1s7TjdrzpvOmxUz+sR9mufxLPTafchT1PqjKmOX+2FJB5WaWyX5IAAAALgj5oGs1WZnygUB+scCAMSKPrDU4kGm3QRRRSwBkn+z20Lqowtmg+OBskkW+nCbRavaUt8BypBuBq+togLdYwAAAKIs7rIWAwBAPFhKC3i3DzWbvGk/0TViLPCy8TTYpGbWyMyCQpFBXtmX2t90At8Pa+JcSeViXHCeod733ImUXTGLBvOg2r/fKpu0Gev9a31DTYHBqmdkvmhqzQJt6TlK0M5qg1nCLL8h4AAAACCyEMgCAIAfNcsuC9DG8Cy7S2mSL2j06yfqGUorRDBbmjfDcm0qy+CrHzqtJ40RQat/c2ZDoiaUsvpS34Cq0J40w9Uh1vRBNQvaM1hA22k8XRxwHAAAABBpCGTBsoB+cZpmhMEes8vNfQGABQVD9P9zvua+g6hYCdBKFovA1iholHh60UBeY7mO1ofxD+tpnynmLFD6poasCWZBrba2NtRkNIyOXKubkUei9leb2ZmdM+vNoQEAACB8poFsWrr4hbYprWVHvwsizWQSkDguy8F2KEvP6nYsuDTqF8cEe0zLSllW9xVKPJ5DLZSlh7JUUS1ryAIxF0huxmsQ0HVuR90Ny1KSQ62ktQZf9N+MHyDm7Al6XJ6hNEepwdUlgnKW6ClYWYtGKOPAKrW8cg1tq1bN1SbHNm66xf1nA2XpoCxVMpfl9XrFknWJcFxOoCwV2yaePxvRPhdORKqsFG9Npf13JpgoDLAP1ihBIbsgDS9JVrDB/IM9Zpeb+wKAkJTvazaObKhxXi08l2Uj7lOg//81+h4yep6PQTmhv8tYEqoeov+u1iAqNqxdtYn1g+UJpcz2p3x3GTS7FoIeMwAAANgWuabFERxgH6KsYiOtYn99feU0gj1ml5v7AoDIMB0rdTOtX83+dqGOUe8sKteO+n5vlORTvqRRcrNgbY1t8AnNhAEAAOJdFPvIYoD9hKUkVOncLjCZSbDH7HJzXwDgrt43yVmAyxbSQqNItmIJzeU1opnUIdb/wJomx67wtKOL+UwhLTBqsqzchAMAAICoiXKyJ+MB9pXB8QOmEUvFM2SseRlbrwysr26n3j13tC+/wfS1A/crz5OnCNcksyZ1mtfBJv9jNez3pWznO0b9WI/6vmPqudIfmzxpj53h5SpNxXUJYcbShCCP2a3NCFYOakYA4oGSUXglje7k913oa3rL+tbmht+U14+SAKp03hJ9bTD/7jP6jthMC+fJ338Xt2dNkcNN9tST+g2T51hiJ/338FLKVcaxHTbSxSzJAAAAEEwcZC1WxyoMwAIao+QZ62bwwJP1N9JzsK95owMG02eBH7tQYcGVPvGQwQWcK+TA0xfIafAg1C8ID58+0NXi5SFLMAAYUMdSZd+Fys0maVK+QyM1lqqvNlgMeaO7ySXGddVNor+si90Usqer49LKWYqVSe7Xz/vj+vUd1t4sVH6v1G3RxQYAACAcUQ5kAwfY56SLDXVAfGUSFw3Shcskv1rI0oJCKtVto7l7bndfZVIwp+nPq4wRyC42lMQc8mPBmkWH1/+qYtpoX5IStTz967FHP96hnH1U2edEyvCVxxKTaMpT+pVphrLIni6tLxrE5/X9nifSE0Ees1sjE6wct2t3AMApv7FUNfj3TMTGUu1JM3z9XjV6T9T0h9Vz//XItbqmx47vKgAAgKiKYiCrZqTV3yWXLg4MLzbUgfFXbdAHjuYXKA73pbmL7hk5Utx1Z9kptdklpQu4x+VAy9JA/ZYtpUmiZtQom6Vn5PzQ2URtUcozyK7pGUorxEVhad4MNOkFSHYsEGQ3jGx+x/DvJd/NJnkyy4yuPFf7OL9xJa0zzN5r9prY95MoS55E4BiwXp7Cy9RuzsmxG0/G2Y0BAADAmsgFsrp+jmzSNL8yDDYDazWNmr5aE86+LqCOvObVzqD+YfS/KlnsOy/9XGoCF5RSXlZf6mt0EeXpRQNtHz8AAAAAAED0RLVpsWHzK1+iJSXQDYOb+4q2LA9liNmoMM0MrCTkWklrEcgCAAAAAEAcilwgGzCOrFHzK022R0l4/UPd3BcAAAAAAADEqygne/Lja+YqJ2gy7C9llZv7si2wKXPwyWC4iLIKKhezUbF6o0lm4s20fjX724U6ov8WAAAAAADEodgGsgrTZq4OuLmvaFCGlTAbaN+Pf7Iq23zDWCykhUaRbMUSmsszGmdSBwSyAAAAAAAQh2IbyHo88rAJBUP8Bpg3GsM1BDf3ZVsYyZ6kbc0H2pewAf9HLKXsHJEx2S+bMDs2o/FnGU/7TP63dN4STe2rksHZYExc1sdYNM/uOjkXQ0kAAAAAAEBcMg1k09J56lrb0oYsEHMWeIbSE5ogTtv8tk9BFxo+LHi/Vt1rtLivb8YP4H/tcnI+rG6TPV0ZozbwtfuCVE3NrXbwfzbWbdcsk/Pkq30dTxm+bcZS+ch835i4ozup+0pR+hhnjaM5QYaucPzZiOA59IeyVChLD2WpUJYeylKhLD2UpUrmsrxer1iyLhGOywmUpWLbxPNnI9rnwolIlWUayG6r5O1Lbds2u5+Ys4aNJxiQiIknippPY+QKRVP+r9HKvi4fN0+escnJ+bC+TVsatbySvEVyrauWOs4tq/WdLYJZhTzW7YrHzU6UtI0YF1ZPLs90YH/D4ZFUjj8bET2HeihLhbL0UJYKZemhLBXK0kNZqmQuKyUlRSxZlwjH5QTKUrFt4vmzEe1z4USkykrx1lTav8UAAAAAAAAAECPxkewJAAAAAAAAwCIEsuA+ljTK1yfXyuSXdAoAAAAAACAINC0GAAAAAACAhIIaWQAAAAAAAEgoCGQBAAAAAAAgoSCQBQAAAAAAgISCQBYAAAAAAAASSuQC2ZKxBtlp0ym3RDyezMSxhzxWg3MUdJtIPx8AAAAAACABRCCQ3UxTu0tBU06hWNabmSM91n0WKaOtVEzrzwOsbtM2izWREa1yiJZSrsmxa/HXY/A8dn6MXmOknw8AAAAAAJAoXA9kF43oQaPL2FwXyl9TSd4adSqf3IU/JxkpgXJK6hCaKdaZqphFg/NW8tnhRZpzVDSIryvNG60fVzXSzwcAAAAAAEggpoFsWnqWmLNjKQ0oYH9ZEDufRnn4Sh/PyPlSQLWM8juLFWFy8hq/GT9AzNnjpKw3hhhvs2jKeCplM8Nm04zefJWs90QqHsZmVtLcYrXW1MrzH8u6gq9i7OzfyXE5+2ygLC2UpYeyVChLD2WpUJYeylKhLD2nZXm9XrFkXSIclxMoS8W2iefPRrTPhRORKivFW1Np/50xUzGLunViQZRxIKvHmiArtbf+BlFxzUTKluYWjUinPjw49iMFad7pPcWCXCOakbeSuk5eRitGttVsdysNz/qAZoYox01K2aw2VBdIcupxGz7O+rWyJsFZ46h8+VDyRPz5AAAAAAAAicXdpsWednQxn1lJa11purqUFhgFsUzBEF1fW591M6hbqknwGxc20VoeVHehjkZRpMdDXdnfsgoq5ysi/XwAAAAAAIDE4nIf2Z7UjzddDUzqFKgtjVqu9ptlNam+vpzaWlJWc+hbr0yzaTh7rGw8TfLLwltaUEilum1eoBkhy1lKubx/q9VpLC3i2wEAAAAAAEC0uZ7sKXv6MspXmjRLgWaGNgAcsVQ8YFVPKQg1av7ak8aIwHTVBn0GXh6oxnOT2YqNtIrPZFIHwxpTpVZ7Ha1ndwEi/XwAAAAAAIAE43ogq9S08qRO/n10WXNgKaC1P5ZpYI0p6w/rHilg9tXSWpnc71cLAAAAAAAA1kQgkFUoAa0yiebAkpk5/a0N/8KSR/HA1cKQNokiVI2of41qpJ8PAAAAAACQYCIYyPpjtZ5KMGslGdRSyuUZkGW68VClKZnHpAUAAAAAAABzUQxkGTUZlH/f1gAli+VaWJG4KXAYGzdFM9nTBdSRN7k2CeYrKuTgPctDGXxFpJ8PAAAAAACQWNwNZCtmUe60YAGqOpzOxe3byjOhdG6XZGOdtqW+A+Ta5JlFgcmvFhUV8r9dB/QSxx3p5wMAAAAAACQW12tkV+X14LWWgQmdNtPU7qKva9Y4GiNqWD3tM/nf0nlL9EP1KOOdFgwJ2NeiEfaTPZmWw0U32ZOnT1/jYysZK8a/7UID+6iBfqSfDwAAAAAAkEhSpMDMK+bDx5Izafq1GutC+Wvm0yhfdSBr1uufzGkQFUvBIkkBqxx4+etCw4cRzSxYyYfbWTGyLVVM68+DW2U5kHk5bmQgVso35n/MwZ9vdAyRfj4AAAAAAECicLdG1jOUVrAay6JBYoWfYbPJW6MP6Hht6Jpxcg2in+zpBkmdxD7GyBWsNpiXEwuekfMNzxNLamUUZEb6+QAAAAAAAInC3RpZAAAAAAAAgAgzrZFNS+epb21zsh3K0kNZKpSlh7JUKEsPZalQlh7KUqEsPZSlYtt4vfbrdhLhuJxAWSq2TTx/NqJ9LpyIVFmokQUAAAAAAICEEuVxZAEAAAAAAADCg0AWAAAAAAAAEgoCWQAAAAAAAEgoCGQBAAAAAAAgoSCQBQAAAAAAgISCQBYAAAAAAAASSuQC2ZKxlJKaHjDllojHk5E4ZkvHaHB+gm4Xb88HAAAAAACIkQgEsptpancpEMopFMt6M3Okx7rPogqxXDGtPw+auk3bLNYkqqWUa3LM/vgxGzyXnRuj8xBvzwcAAAAAAIgl1wPZRSN60OgyNteF8tdUkrdGncond+HPSSZKIJ6SOoRminVBVcyiwXkr+ezwIs35KRrE15XmjaapSpTPxNvzAQAAAAAAYszlQHYpLShgf1kQO59GefhKH8/I+VKQtIzyO4sVtdCiKeOplM0Mm00zevNVst4TqXgYm1lJc4vVWtB4ez4AAAAAAECsuRvIVmykVWLWXFsaNX0oeUQT5AxRG1ia18PXNzMldSwt4mtlaq2nOpk2kfU9tpRyddv0j0jNohycy7WYcuAXzGZav1qeG57TU57RyM4RtaDzloim1/H2fAAAAAAAgNgzDWTT0rPEnA2edvQdn1lJa12JfPTBrhYPfOtfbBhgyUGxf1PflTS6U39q2NrBcUmcnI/AbTbRWtHsuqNfbTXn8VBX9rdsMpXzFVafX0FX87KsP1/Z///Zer7M0WdD4s45tAZlqVCWHspSoSw9lKVCWXooS5XMZXm9XrFkXSIclxMoS8W2iefPRrTPhRORKss0kN1WySMcm3rSPFEr6Z/UKVBbGrVc7TfbdfIytX9mzUTKltZVTBtt3N92zTg5wKo5QIPNkhENm63Zn1JbupIOXHi/5jX519qaT9u3b5f+6muKQ3F2Dpl+4q91bzgs6x7x1w6nx+VkO5Slh7JUKEsPZalQlh7KUqEsPZSlYtukpKSIJesS4bicQFkqtk08fzaifS6ciFRZrid7yp6+jPKVALpsPGVoA8IRS8UDViylSbwm1qC/rWcorRDBbGnejIDgkgfF0/VNZbOnz6bhbKZsIS2MVTtZX9PrTOpgWAPaji7mM+toPXuN8fZ8AAAAAACAOOB6IKvUtPKkTv41wgVDeEBrbZzVxXLT4Ky+1NcwyOpFA/n+rQZZF1BH/nxts+eeNENTaxt6kmuKAQAAAAAAIHYiEMgqlIBWmUSNqGRmjo3ES53bkVEcy/bfgWc/ttofV3k+0aoNMcrCG6qG07+GNN6eDwAAAAAAEAciGMj6Y7WfSjDrVjIoZy5u31bMAQAAAAAAQKKJYiDL9KR+IhmU5VrR1RtNEkYpQ8eYZNwNoA41o7Ke7Eme7CV7CmTUvFmjokIe0zXLQxl8Rbw9HwAAAAAAIPbcDWQrZlGuWRZhbiktKJDnQtaK9r4peHKmiiU0lyezstjs1ff8QdSvN18TA22p7wA5S/PMosDEV4uKCvnfrgN6iebU8fZ8AAAAAACA2HO9RnYVH8PVKKETGxNWjO2aNY7GiGDS0z6T/y2dt8Sv5rUnjeFD88jjv+r61EoBc7dO43ltYdfJuQEJmErXbRJzgunzo5/sydOnrzx0UMEQ/TkqGUt9eJDfhQb2UYP8eHs+AAAAAABArKVIAZr9EX7NaAJGc/7D6bDmvSLA9RlExTxoZMFvDzGWrAEpIC5fPtRXW1gxrT9l8CF7TPg93w3ByzQYOkgSbBs2dNCKkfrAMd6eDwAAAAAAEEvu1siy8V1ZzWXRILHCz7DZ5K3xD+x60gwxJmwgOfNxOa+Z1eNjxZoEpV0nj/NlSFYEe360eUbONzxHw4sqDYPGeHs+AAAAAABALLlbIxtjSs0iahEBAAAAAACSV5SzFgMAAAAAAACEB4EsAAAAAAAAJBTTQDYtnQ8wapuT7VCWHspSoSw9lKVCWXooS4Wy9FCWCmXpoSwV28brtd/bLhGOywmUpWLbxPNnI9rnwolIlZVUfWQBAAAAAAAg+aFpMQAAAAAAACQUBLIAAAAAAACQUBDIAgAAAAAAQEJxP5AtGUspqenGU/dZVCGe5tSiEWJfI5aKNclkM03tLh9ft2mbxToAAAAAAADQim6NbNl4ypCCtNwSsRxDFdP6x1nAyILYHjS6TCwCAAAAAACAocgFssNmk7emUjMto3yRRXlmTn+a6rBqNnu62N/0nmJNMkAQCwAAAAAAYFUUa2Tb0qjlSjC7kuYWo+msYtEIOYjtOnkZlU/uItYCAAAAAACAkSgne2pLHTrLc6XrNskzgtLUVzsZNfs1axKs9J2Vmy0vpVzNflJSx9Ii/ixG7oeakbeSL5Xm9TB+XsUs6qbbhzy53Syave4+BXIQu2JkW7EWAAAAAAAAzEQ5kDWiDyy1eJBpN0FUEUs2NYRmikVZIfXRBbPB8WC503gqFcta4TSL9qcEsawZNoJYAAAAAAAAa6IcyC6lBSxwkwzPkfu4VkwbLfqGdqH8NZo+tWvGUVe2umw8DbaRkGlmQSFR1jgq9/XNnU3D+SOFNIHvhzVxrvQ14WU1ob4yayZSdsUsGsyDar/Xo9sX41/rG2rSB9LaIDa5+vsCAAAAAABEVhQDWRb4iZpSKdAc01teN8kXNM6nUR62TvAMpRUimC3Nm2G5NnV4kRRwLh9K6q560hgRtPo3ZzZUUSHXxGb1pb7a18P1pBk1fq/TAVbjiyAWAAAAAADAGdNANi1dpBi2KW3IAnmmYIhfjaTS3HcQFSuBZslieV1qhUHQKPH0ooH8Zayj9QbNea2+Rk/7TDFnYRuPx7AmOHA7FtT619jqp1atWmmWJ1K22NIn4BwF9t21OjyQ4/fLwXYoSw9lqVCWHspSoSw9lKWKdller1csWZcIx+UEylKxbfDZUKEsFdsmnj8b0T4XTkSqrBQpyLL/zgRTMpZScgrFgl5AQiPluUFqJpUmuKymdUZvuTaTBXv++/J/no5BOWb7YZTH/Bnu2wGz/RtBEigAAAAAAAC9yDUtZkGjpnaSTYkSkHlGzpderzrurWJmDqs1tZ40yoy8f/25USb/vrsIYgEAAAAAAPTiIGuxZPVGk8zEm2n9ava3C3UMs1+qfXJSKF+QqSSf8iWNCi/ZEwAAAAAAADgT20C2901yFuCyhbTQKJKtWEJzeUbjTOoQ9UDWj2cozRG1pQAAAAAAABA7Ma6RVTIKr6TRnfzGZ62YRd3EWK5dJ+cGJkoKk5IAqnTeEn1tMOtPa1h7upkWzpP7tV7cnjX3DZ3sST8ZJHsCAAAAAAAA22LetNgzMl/0RWXBrKYprghi2VA9cyLRT9RXGzyeMgKa/xZSH986Zeohj3frGzoIAAAAAAAAYiEO+sjKfVGVJEdaPOGRbkxYN/WkGb5+rxq9J2r6w+pF9vUAAAAAAACAFe4PvwMAAAAAAAAQQfGRtRgAAAAAAADAIgSyAAAAAAAAkFAQyAIAAAAAAEBCQSALAAAAAAAACQWBLAAAAAAAACQU00A2LZ0P7mqbk+1Qlh7KUqEsPZSlQll6KEuFsvRQlopt4/XaH6whEY7LCZSlYtvgs6FCWSq2TTx/NqJ9LpyIVFkYfgcAAAAAAAASCpoWAwAAAAAAQEJBIAsAAAAAAAAJBYEsAAAAAAAAJBQEsgAAAAAAAJBQEMgCAAAAAABAQkEgCwAAAAAAAAkFgSwAAAAAAAAkFASyAAAAAAAAkFAQyAIAAAAAAEBCQSALAAAAAAAACQWBLAAAAAAAACQU00A2LT1LzNnjZDuUpYeyVChLD2WpUJYeylKhLD2UpWLbeL1esWRdIhyXEyhLxbbBZ0OFslRsm3j+bET7XDgRqbJSvDWV9t8ZAAAAAAAAgBhB02IAAAAAAABIKAhkAQAAAAAAIKEgkAUAAAAAAICEgkAWAAAAAAAAEgoCWQAAAAAAAEgoCGQBAAAAAAAgoSCQBQAAAAAAgISCQBYAAAAAAAASCgJZAAAAAAAASCgIZAEAAAAAACChIJAFAAAAAACAhIJAFgAAAAAAABKKaSCblp4l5uxxsh3K0kNZKpSlh7JUKEsPZalQlh7KUrFtvF6vWLIuEY7LCZSlYtvgs6FCWSq2TTx/NqJ9LpyIVFkp3ppK++9MMioZSyk5hWIhUNfJy2jFyLZiyYTYx/CiSprRW6wDAAAAAAAAV6FpsUWleT0opfssqhDLgZZSbpBAGAAAAAAAANyBQNbfsNnkranUTeWTu8iPlY2nwdM2y/NCxbT+lJKaLk1DaKZYBwAAAAAAAJGDQNYCz8j5vmC2dN6SILWyAAAAAAAAEGkIZC3ytM+UZ8oqqFye41iQq9TcFg8TKwEAAAAAACBiEMjaleWhDDELAAAAAAAA0YdA1qJFRSKRU+d25JHnAAAAAAAAIAYQyFqwaEQ69Slgc4OoeHpPvg4AAAAAAABiA4Gsv4IhIguxOslBbBfKXzORsvmTAAAAAAAAIFYQyFrBh+SZT6PQphgAAAAAACDmEMj6044ju2YcdWXrCoZQN7/xYwEAAAAAACA2EMgG4xlKK4oG8dnSvB4IZgEAAAAAAOKAaSCblp4l5uxxsl1cl9V7IpVP7sJnWTCbW8JnLcE51ENZKpSlh7JUKEsPZalQlp7Tsrxer1iyLhGOywmUpWLb4LOhQlkqtk08fzaifS6ciFRZKd6aSvvvTDIqGUspOYVy02KDzMRq5mKW9Mm4v6zynOFFlTSjt1gJAAAAAAAArkLTYouyp1dS8TA2t5JGdxpLi/haoopp/f2yGxPNzFEyHvenqRXyOgAAAAAAAHAHAlkbsqcvo3xey11IfRCkAgAAAAAAxASaFgMAAAAAAEBCQY0sAAAAAAAAJBQEsgAAAAAAAJBQEMgCAAAAAABAQkEgC5BEDmw5TMcOHBdLAAAAAADJCYEsQBL5KO9L+vGTrWIJAAAAACA5IZAFAAAAAACAhIJANg4tGpFOKali6j6LojlcbSzLBgAAAAAAsAKBrKJkrBrAGUzdpm0WT4ykzTS1ezr1KRCLWrF4fWXjKQPBLAAAAAAAxBkEshaV5vWIfA1lyQwaXcZmulD+mkry1kjT8qHk4Q8G59bry54uyl0zjrqyFVIwO6mEPwQAAAAAABAXTAPZtPQsMWePk+3iqqxhs+VATjOVT+4iPyYFdYNt1HzafX0VG9bxv6kNfqZRZtGri6+PMX2NnqE0R+x3ZtFS/lcRV++XCZSlQll6KEuFsvRQliqZy/J6vWLJukQ4LidQloptg8+GCmWp2Dbx/NmI9rlwIlJlpUiBkP13Jhmxprs5hXKgOL2nWKmqmNafMvJWEmWNo3KLtaR2sf6prFnx8KJKmtFbrFTE4vWFKBPizzt3LaWLBl5AnX7TVqwBAAAAAEg+aFpskad9pjxTVkHl8lxcMXt9LMBV+9AupVxd39r+NBUdYAEAAAAAIMEgkLUry0MZYjYumbw+3oc2dQjNFMuylTS6E4JZAAAAAABILAhkLVpUVCjPdG6nabbrX8MZahpLi8SWgTbT+tVi1gHj1+fHr39t8TC2Ugpm7wuRJGr1RmQuBgAAAACAuIFA1gKl7yrRICqOVF/RiiU0l2csHkT9/PvHhmDl9XWdvCygn2v29Nk0nM2ULaSFRpFq75vE4/HZnBoAAAAAAGonBLL+CoYE1KTKQSIbEmciZfMnKXrSDE0NZ+jJf3vFUsrtNJ5KpbnhRWbPEWy9vlAuoI48IdhKWmtY5dqTxvDMxYXUB+PJQhD6vtgAAAAAAJGFQNYK3iR3vvmQOE6xrMA8GGV9VwdRsRTsBmQrtsLx62tLHTrLc6s2GAcgnpHz5TFly8ZTBn+twZpHAwAAAAAARB4CWX/afqQsgGPrCobET01ThF7fxe2DDNdSUcFriwEAAAAAAOIBAtlgPENpRdEgPsuy/gYGi2Eme+o9UQSlrK9qIfWRnmMrIA35+kIJnWCK9b/lY8my8Wn5a7XbfBnihdL8VzuZfWb4+y49nlsiVmgpLQlGLJUWNtPU7unyGMYSOTu2sn/U3gMAAABAZCCQDUUKNst5P1H5It3wwj5srK+tnHipNG+0veFwwnl9oRJMVcyiCUoSqeVDzbMhQ5zTB5taPPBE/2cAAAAASDAIZC1g/UTloWqIZuZox111K9kT05P6ieFwjBMvmTN/farSdZvEnCAFqd1Egqmuk3ONX5fSpHjYTaiFTWAV00bTaH7DgiUE03welabpZeNpsOOm6W1p1PJK380Unh3b0ucdAAAAAMA5BLIWZU/XjLvaKf6aTIZ8ff7ZjkUQy5oMzxkZpH8sJLilNInXxLIg1i8hGGuaLoLZ0rwZaAYMAAAAAAnDNJBNS+fjstjmZLtEKSt7+jLK55uz/qzGNZ9aTst6Y4iz4wr2+rpOHiePCavBas9aVb5su8lwOOfQLpSlZ3u7ksU0k/3N6kt9jd5oTy8ayHe5jtbbbAlg5JvxA8ScPXi/VChLD2WpUJae07K8Xq9Ysi4RjssJlKVi2+CzoUJZKrZNPH82on0unIhUWSnemkr77wxEBEuww8aEZQHmCpdqSVmCH9Y30sk+lW15puTpPcVaiGfv3LWULhp4AXX6jXivWWImlqwryHuofO6GF6nDPxmt8zHYZzifMwAAAAAAu9C0OI5kZCpJm+KhmafSJFUKrDMv4H8BAAAAAADiAQLZOOIZOVI0/5WH4uF9WaOcUVYZdiUldYjcJJUG0ROoYUt8qzeafI6UIZi6UEekpQYAAACABIFANq6wLMhKP9c4wMeORebZhNb7JvnmSNlCWmgUyfqGYMqkDgaB7KoNTrMZAwAAAABEDgLZuCMPZ+IbwiTM8VvZ0DxsP1b7LbLsx26VDfGgJ43hQ+OwbNZ+CcqCDMGUnTOI//Vv5s5r7Fn/WD+e9pn8b+m8JRiTFgAAAAAiDoEsQJLzjMwXtfwsmFWajktTsCGYlJpcbTN3aeLJyLLkvtw6vprf8ZThe378DVMFAAAAAMkBgSxA0pNr+ct5zaweyzJsXPPOmrnP9huyaRAVs9r9x+XaVz3p+WJMWgAAAACASMPwOwBJJGD4HQAAAACAJIQaWQAAAAAAAEgoCGQBAAAAAAAgoSCQBQAAAAAAgISCQBYAAAAAAAASCgJZgCRzvPqkmAMAAAAASE6mWYvT0rNoW2WZWLLOyXYoSw9lqVCWntl2u9ZU0Q/zNtHnz66ies3PpAZtzhaPEH2zcjVd3qWzWLLOyXbBtrnznV5Uv+VZYkmvtr1fwaAsPadlbd1cSikpKWKNNYlwXChL5bQsfDZUKEvFtsFnQ4WyVGybeP5sRPtcxFNZGH4HIEEpwSubUuqk0EUDLqCGberTOa3PojMbpIpnxY9WlzWl085EIxAAAAAACB8C2Qi6rmcxlX2xk/71Yjcaem97sda6kaPL6MWX1tL9QzOlfXQVa617/c0f6b77/0tXXtGcViy/RayFRGYUvLKpWWZD8QwAAAAAgOSHQDZCvlm5h67IKuLzjRql0t4dd5OdFgkHDhynxi3eoFOniOrUIWn7e6hhwzPEo6F5pXe1RVoh7d5zjC+vWN6XumY15/OQWBC8AgAAAADooZ1fhEz/11oxR1RVVUPLlv8ilqx57fUKHsQy7O+rr22QFywq+2KXL4hlZry8TsxBImDB63/Gf0svXvIevTNoKQ9g75zbi0b8rz/1+MtlCGIBAAAAoFZDjWwE7N59lNpc8DYdOyYiUUn/286n997pJZaCO3XKS5md36PyigNiDVG7C86hDWtup9NOs1at+9t7ltFbczeKJaLU1Dr088Y7qUWLumINxBvUvAIAAAAAWIMa2Qh4edYGXxCrBI7vf/AzVf50mM+H8tHibb4gNv38+vzvxk0HaVHJFj4fytZt1TTvvc18vkULOUtsTc0pmlmwns9D/EDNKwAAAACAfQhkXXbixCma/i+5Ge+ZZ9ahMY/IQ5GwWlZtc+Ng/jn9BzFH9PifLxFzbL217f81cx1/HQwr/+yzT+fzL81YR8ePowI+1hC8AgAAAACEB4GsyxYU/URbtso1r3f/9kJ6MLejL0nTy7PWU3X1CT5vZkP5flpUspXPd/lVUxp2Xwe68opmfHnxx1tp7br9fN7M0aMnacbLcs1rgwZnUO79mfT732Xw5W3bq+m9BXJNLUQXglcAAAAAAPcgkHXZtBfWiDmiPz7UideGDrtPHnpn374aevPfar9VIy9oal1H/qETz1jM/iq0jxt5+51NtGvXUT5/35D2dM45p9MfRnTky4z29UFkIXgFAAAAAIiMWpHs6YGHVtBnn+8QS7Jf90qjqc9dLZbc8b/v9tKvrnyfz1937bm0/NM+fJ71b/VkzuND4lzcuTF9900/w6F42JA7bS54iw4ePEHNmtWlnzcOpLp1T+P9bc+/8G3aufMoD4y3br7LcCgetv/Lr36fvv3fXr5/lhzKc2ED/thNfT6ijz/Zxue/Kr2VrrhcruW1asjQ/9LX3+wWS7K+t5xHf3/6CrEEDBI2AQAAAABEXkwDWZYA6YXpcg1hp46NqEXzyGTUnfNGBW0oVzMAM6y8QXe1E0vW/PTzYV7byWpae17fUqxVDR3+Gb0yu5zPv/NWTxrwm7Z8nrntN0uoaOFPfH7px9l0fY/A7f/54loaObqMz//f2Evpb3/twueZJ8d/S+P/9j8+nz/5Kho18iI+r/X5ip107fUf8vlb+rShhQtu5PPMwg9/plv7f8Lnf3VZU7q9fzqft2rWqxto0+ZDYkl22aVNdMdY23wmnW/WFzmzcV26PbMBglcAAAAAgCiJaSD7h4fL6MWXrCUwiie9bkijT0puFksy7ZA7bVqfTZvKB9Dpp6stt5d8up1+3buEzxsNxaMdcocNsVP540BqnVZPPEq0ffsROv/CuTxwurCdPBRPHSlo0rpz0H9orhRMMR99eBPddGNrPs+w/Tdu8Sav9QV3pErT/dJUR3q/bv+/yxC8AgAkmfcWLKKnJ75AnTrKuSaSBbuWqDl+kuqdFdi6K5Edl47reJIe14kTJ+msukl2XNJ7deLkqaQ7Lva/dTIJj2v7LzulGCSdZkyfKNbEnmkgm5aeRdsq5dpBO+xsl6iB7DnnnEF7frmbzjhDDST//uz3NPYv3/D5ZyZcTmMfu0R3Lliz386Xzac1a6t4ALpxwx2Ufv7Z/DGm5KMtlH3rx3y+bt0f6ciBv/F5rUG/W0b/flvuY8tqW1mtq+LcNr1oz57fSf84XurQvgGt+f43AYHujdkf0SdL5ObFED4WyLKwdXdKDZ06lsvXWRWN/y8FytJDWapkLmvr5lJKMerDEUQiHBfKUjkty85n499vvU8TJ02nn3/+hf459Smx1po/jnrK9jaMk+3sbnPo0DGqOnCU/vFsflId10HpuA4cPEZ//8cUR2VNy3/S9vdGNI6LHdOhw8do4t+dHZfdbZhoHNd+6TN4uLomIY7Lzmejav9ROnr0OD098bmoHFe0zsUnSz6jt99ZKMUo9ofzjNRvQ0xrZGe+vJ5yH1rB5/82vgvd2CuNz7tt9KNf0IqyXWJJ1rNHK/r7M5eLJWv+MWkVvbegks+/XXg9DRxwAZ9ndzYvyJjHsxWzIXe2bLqT93H1x4bFefAPpXz+T3kX0z+eUfuX9slZ7MtW/Nl/bqFrurXg81plX+yirtct5POstpXVuir+8uRK6R/mOz7/wvNd6aEHM/m81ubKQ/TV17upufTa6tU7Tay15sE/rKCV3+4VS7Lsm9vQU+MuE0u1z69v/kj60TzO+xuzfscAAJBcPlq8jPKnzaKShXPEmuSwZ281bd95kDpnnivWJIddew7Trt2HqVOHwGuoRLZTOqY9ew9Tx/bJdVw7dh2ifVVHKDOjuViTHLbvOMhvqrS/0F4+mnj34ktzaO26cinOmCDWxF5MA9nCtzbS3YOX8fm33rye7rxDDgzdxoajWbuuSizJLr2kCd37e3tNhX5YU8VrVRkWaLKAk5n33ma6466lfP6+IRk0a+a1fN7f4cMnqHXbt2j//uPUuHEqD3jr1TudD7nT4aL3+HPYkDtfl+WQ0U0fVqt79TUf8GCUWbvqN5TZoSEfcue8dnN582Y25M6WTXfxbMVuYtmSK37U9zNmAdw9gy4US7UPa6pdVVVD3a9rScuWZIu1AACQLBDIJhYEsokFgWxiicdAtlYMv5N7fweeoVg72Q1imYs6NaJeN7Ti8yyx0jcr9/B5lqRJwRJBmfEfiocF8syLL63jfxk21I5ZywW2Xj8Uj5wo6625G3kQyyhD7riNDeHjfw5rcxALAAAAAACxg3FkbdIGkmxMVjbkzvL//sKX2ZA7LJNvMCMe6OgLVNn2rHb21dc28GXWHDlUrfQdt19ALVrIzZZnz6mgqqrjvrFh2X6NmhQDAAAAAAAkEwSyNt2SfR61Ta/P51lN6LOTV/F5Rhvkmml3wTl06y3n8/lVq/fRE0+t5OPGMqzmmI0bGwzrg/vAcDlYZU2Vx/31Gz5uLNMnu41v3FgAAAAAAIBkhUDWJjY0zh9GyAFrTc0peufdzXyeDbnTL0cOUEPRBryvviaPO8v2+2CutdrUB+7P9A3t86oYt5YZGaRZMwAAAAAAQLJAIOsAS+jEkjQxLGMxM+IBNbgM5YaerahTx0Z8/tAheVzX2/u31Y0bG0yrVmfRHbe35fOHDsu1uWzInV9HKOszAAAAAABAPEEg6wDLOHz3b9uJJaIzTk+h+4fKSZysYH1Z//hQR7Eks9IsWcv/+X986KKAcWMBAAAAAACSEQJZh353t0fMEV10UWPDcWODYdvXEWe/YYMzqFtXeynVr76qOQ+oGRYYD75HfT0AAAAAAADJDIGsQyxD8aiRnahz58b00Yc3i7XWsaF4Zky/hi5sdw59WHQTD0btYM8v+fAm8lx4Dk3/Z7eIDLkDAACQVErGUp0z0ym3RCwDAEDCQiAbhvzJV9Oqlf18w+HYxcaUrVg3gK7p5myA66uuaE7lawfQA8M7iDUAAABgbCnl5hSS1ysWAQAgoSGQBQAAgKRVMa0/paSmS9MQminWAQBA4kMgCwAAAAAAAAnFNJBNS88Sc/Y43c4JJ2VF87hQll6yllX2xbdizjqcQz2UpUJZek7L8jpoP5oIx+VEbS/LM3I+eWsq+dTE2ih3AWr7OdRK5rLwvaFCWSq2TTx/NqJ5Ll59bZ6YsydSx5UifbHHrLdI4Vsb6e7By/j8W29eT3fecQGfB0gEjVu8SVVVNdT9upa0bEm2WAsAAPFq0Yh0uqWA6P6iSprRW6wM4qPFyyh/2iwqWThHrEkOe/ZW0/adB6lz5rliTXLYtecw7dp9mDp1cJZ7JF7tlI5pz97D1LF9ch3Xjl2HaF/VEcrMaC7WJIftOw7SwUPHqP2FzcSa5PDiS3No7bpyeuH5CWJN7CGQBXAIgSwAQGIxC2R37Ngt5vSWLiulf818g96YPU2s0atf/2yqV+8ssZQ4WPCwY/chyvQkVwCxZ181D9KTLYDYLR3TvqpqymiXXMfFbjzsP3CUPBc0FWuSAwvQD1fXULv0JmJNcvjXzNdp/YYf6cVpCGQ5BLKQyBDIAgAkFqNA9uTJk9S67VXygp99+16kmppsqlNnD59SUvZJ0w46/fTNdNppaygn53L67W+vpSZNasQWieHUKS+fTj89uVKl4LgSC44rsbz77nu0c8c2mvPKs2JN7CGQBXAIgSwAQGKx27R4VN5WeuHFX1HzZmfQ3n3yRWmTJqfo0KEUOno0hc46i6hVy5O0bftp1PmiGsrscIKuvvoYde50nLKkv6fH6RDvaFqcWNC0OLGgaXH0JNetAgAAAACXZN9UQampVVT62Q46duhnqli3jWYX7KVGDb308B8P0Qfzd9Lohw9Qh/bHaePGM2jrttNo1apUGvuXRnRWg/Ppyq4tafzTDal40Vl06pTYKQAAuAKBLAAAAICJli0/pbfnyumOz2tzkm6+6Qj9vGkrNW1ykm67vTmln3+Cvi77hb75cjvdkn2EDh9OoWPHUui1V/bQSy/slbY5QS/+qz6dUe98uvmWFlTwSn3asvU0vj8AAHAOgSwAAACAiZYtl9Lb7wSO2zP2sQNUWbGNFhafRW8Unk1tWp+kh/94kGbP2kMvTttLHxbXpT45LejIkRT68P1ddPLoT/ToqAO0c1cd6nptS+p63bk0Zeo5tHVrnLY/BgCIcwhkAQAAAEw0OKecDh2qQ+UVgQFnw4anpKB1H320uC5Ne+EcsZboyitq6M05e+iH/23jgWzTlm1o1qv16aYbj9LjUgDManTzJ1fR1m2n0x8ebkw3Zregt0StLwAAWINAFgAAACCIOwceprfnni2WAr0+ew/9uPF0empCQ7FG1rz5KXp09EEqX7ONVpSmUseLW9HHS+ryx1gyqOee3Ufz5+2ix/IO0PtF9ahew/N4n1qjoBkAAPQQyAIAAEDSqpjWn1JS0/nUp4CIDdUwM0deTkntT1Mr5OcFc+cd1bx5sTfIOA/PT9lHR4+k0AcfBo4ryzIdz5q5Vwpad/OAddDvmumSP/2611H69xu7ac8vW+j8807QLTktKPvWFlTykRz0AgBAIASyAAAAAEF0vug4DzzXrD1DrDH292eq6N359Sj/ebWZsVZmh+P0wvN76da+1Tz505w39LW8Z53lpSGDD9OGNdvo4T8coOdfaEC/GdiMXn3NvDYYAKC2QiALAAAAScszcj55aypNpvk0yiOeGAKrlZ07L3Q/1tkFe6i45Cz6RDQhNvLbO6t58qcln9alB//QxHBont43H6VFH+ykSROr6L+f1aWW57XW9cMFAKjtTAPZtPQsMWeP0+2ccFJWNI8LZekla1llX3wr5qzDOdRDWSqUpee0LG+wNqAmEuG4nEBZKraN08/GnQOlQNYge7GRjxftpJtvSaEdO4IPs8OG6Llr4GFeO8vGmmX8j+vCC0/QKy/voe++/oX3w73+1y3oufwG4lFZtM+hE4lQFr43VChLxbaJ589GNM/Fq6/NE3P2ROq4Urw1lfbfGZcUvrWR7h68jM+/9eb1dOcdF/B5gETQuMWbVFVVQ92va0nLlmSLtQAAkCw+WryM8qfNopKFc/jyr65sSbNn7aVLL6nhy8Hs2lWHLrosjXZu3SLWBHfLbc3pwnYnaFr+PrHGGMuC/MRTDXkW5AlP7ac/jDgoHrFuz95q2r7zIHXOPFesSQ679hymXbsPU6cOLcSa5LBTOqY9ew9Tx/bJdVw7dh2ifVVHKDOjuViTHLbvOEgHDx2j9hc2E2uSw4svzaG168rphecniDWxh6bFAAAAABY89OAhem9BYDInIyxj8Xtzd9PvhzYVa4JjY81meE7Q7Xc2o337zC/PWD/ayf+ook0bttH6DadTr5vPDehrCwBQGyCQBQAAALDgluwj9PKs+mIptGuvOUqt007SxH/omwKb+eNDB+nZiVV0YWYaLf44eMbiRo1O0T+n7qO33tjN+9peenkr+vgTZDkGgNoDgSwAAACABa1anaTq6hTav9/65dMzE6ro32+fTd+vCp7xWMGaF+/dsYWem9qAnp4YOgBu3vwk72v7+uzdNGlKAxoytCmt32CtLACARIZAFgAAAMCijpnHae06e4Hih0U76dZ+9vo3fvThTjpytA794eHGQcevVVxy8XFaXLyTfv+7Q3Tbb5pZ3g4AIFEhkAUAAACwqGPmCSmQPV0sWXNem5M09rH9fKgdO/721yq6te9RyuycZjhEj5Ge1x+jdau389d5Wt3zacbL1ptCAwAkEgSyAAAAABZldjhO69bbb7r7wPBD9POW0+jDYmvJohQ333iEFr6/kw/RY6cm+KEHD9KpYz/Rli2nU6dLWtF/PztTPAIAkBwQyAIAAABY1LHjcVq71lkf1IULdtHkKdYSP2mxbMYnj/5Etw9sZjsQnvDXKnp37m76v3GN6J7fN+V9fAEAkgECWQAAAACLnPSR1Rp63yH63RBrQ/L4W/P9dipZfBY9/89zxBpr2Gte/ukOyu59lC6/uhXNLGgsHgEASFwIZAEAAAAs8lx4gjZXnk4nTogVNt0z6DDt2n0afbTY2VA5/5y6lzZtPp3yHmsk1lh3928P09pV22jz5lQaOPAi+u77VPEIAEDiQSALAAAAYEO4tbJvvrab7v59M7Fk39Tn9lGrlqfozkHO9vHM33bQX8dvot/f14T+/H/2A2IAgHiAQBYAAADABqcJnxRNm56iJx7fT6Medd7E99HRB+j231TToMHOgtmOmdX0v69/ofPPO0mNW7ShDz601/cWACDWEMgCAAAA2BBOwifFw388SJ+vOJO+/sZ5896BA6pp1MgD5MlME2vsG/HAQdq0YRu9XFCf7rirGR09imRQAJAYTAPZtPQsMWeP0+2ccFJWNI8LZekla1llX3wr5qzDOdRDWSqUpee0LK/XK5asS4TjcgJlqdg2bnw2rDQttvL6/v3GbnriyYZiSWb3uK66ooYOHupODZq2sR2EKmU1anSKiubvojsHVtN57VrTy7PMx561+/oUTraLdln43lChLBXbJp4/G9E8F6++Nk/M2ROp40rx1lTaf2dcUvjWRrp78DI+/9ab19Odd1zA5wESQeMWb1JVVQ11v64lLVuSLdYCAECy+GjxMsqfNotKFs4Ra2QsSRLrX8qa5oaL9VFtLAWSj405INY4c/BgHWrRujWVr9lObdoEz0S1Z281bd95kDpnnivW6A1/sAmVV5xOb762h9LSToq18W/XHpZI6zB16tBCrEkOO6Vj2rP3MHVsn1zHtWPXIdpXdYQyM5qLNclh+46DdPDQMWp/ofN+8PHoxZfm0Np15fTC8xPEmthD02IAAAAAG8JN9qT196eraHJ+A9q9O7xLsnPOOUVHDvzMA+xwsxHPfGkvPfmXA3Rlt5b0nPTaAADiEQJZAAAAABtSU73UOu0kHwbHDa+8vIfuu9/Z2LL+lizeyYPZZcvPFGucub7HUdq6eStt/6UOXdm1Jf240Z1jBQBwCwJZAAAAAJvcSPikuPWWI1RHuiJ7/wN3MgezJs9Pjm/kyv4m/6OKXnphL93cpwU9PRG1swAQPxDIAgAAANjkZvNiZtbMPTR0uDu1ssx/PtlBr86uT/9+u55Y49wVl9dQxbptdORoHbr4V61ojUsBPABAOBDIAgAAANjUMfOEFMi619yWjS37WN4B+tPYRmJN+Ba8u4u++OpM+ueL54g14fnbX6t4puXB9zalcX/VZ1sGAIg2BLIAAAAANrldI8uMefQA/fjjGVRe4d5+p07exzMQu9UsuPNFx+nrsl/oDCmG73BRGv3vu/ASSwEAOIVAFgAAAMCmzA7Had1695vYPvzHAzQst4lYcse0/H28WfBjj7tX2/vE/+2nDxbspHuHNaG/TkDtLABEHwJZAAAAAJuaNDlFp5/upZ07TxNr3NH9umN0XpsT9Oa/zxZr3MGaBTeVXvOYP7sXzLbPOEHffvUL1a9/ijyZabTyW9TOAkD0IJAFAAAAcMDtfrIKNo7r8AfdrZVl/pR3gDeJfuChNLHGHY+OPkgfFe+k+x9oQn/+P/cCZQCAYBDIAgAAADgQiX6yTL16XnpmQhWNerSxWOOe+4Ycpl/fcIj++McMscYdF7Y7Qd988Qs1bnSKunU/l776GrWzABBZCGQBAAAAHIhUIMs8/MeD9PEndSMy1M2A2w/Q7QN20fW/Plescc9jYw5Q4eu76aGRTVzNwAwA4M80kE1LzxJz9jjdzgknZUXzuFCWXrKWVfbFt2LOOpxDPZSlQll6Tsvyer1iybpEOC4nUJaKbePmZyNYwic3jktpYhzqJTsp6/oeVbT6h0HU80Z7wayVstqmn6QvV/xCzZudoraeNPr6m1RHr9GNc2gV2wbfGyqUpWLbxPNnI5rn4tXX5ok5eyJ1XCnemkr774xLCt/aSHcPXsbn33rzerrzjgv4PEAiaNziTaqqqqHu17WkZUuyxVoAAEgWHy1eRvnTZlHJwjlijd6WrafR7QOb0xef/yLWuO/Bh5rQtdcco7sHHRZrwrdnbzVt33mQOmeeS999fwY/hop128Sj7qr86XQa9UhjuuCCEzRl0j6xNjJ27TlMu3Yfpk4dWog1yWGndEx79h6mju2T67h27DpE+6qOUGZGc7EmOWzfcZAOHjpG7S9sJtYkhxdfmkNr15XTC89PEGtiD02LAQAAABxo0/ok/bDmDDp8OEWscd8/n99L997fVCy579JLjvNETc3T2og17ko//wTNn7eLZ2Jund6aPvv8TPEIAEB4EMgCAAAAOBTJfrLM6aezcWD30oN/cD+LsYIlalr7/TZKPfs8Ono0MkH56IcP0ldlv9DYvzSiJ57CuLMAED4EsgAAAAAORTqQZR4YfohnAf5mZeQyATdrdooOV22h89q1pu3b3R0bV5HW6iT9d+kO3oe2Was29MmSuuIRAAD7EMgCAAAAOBSNQJYpmLGXhuVGrlaWOeMML+3atoUuz2rJm0xHytB7D9H61dvoH5Mb0NDhkT0mAEheCGQBAAAAHOrU6TitiWDQp7js0hq6ptsxevGlc8SayNlWuZXuHNSMlv83cv1ZmzY9RR8v2ikdUw1de/25tKDoLPEIAIA1CGQBAAAAHIpWjSzzwvP7aM4b9aimJnLJpRSr/7ednniqEb3/QWQDzPuGHKJPSnbSa3Pq08DfNqMTJ8QDAAAhIJAFAAAAcKh9xgmq+PF0OnVKrIiwUSMP0pChkctirLVsyQ56dXZ9ekWaIqluXS/PbHzHgGo6q8H5NHdePfEIAIA5BLIAAAAAYYhmrexv76ymPXvr0OKPo5MoacG7u+jzFan0j0kNxJrIueP2ajpe/ROt/CaVburTgnbujEzSKQBIDghkAQAAAMIQzUCWmV2wh4YMi06tLDNr5l7aV1WHxvy5kVgTWX+fWEVjHjlAF3dpSVOmRr5PMAAkJgSyAAAAAGHo2FEKZNdGL5Bt1eokjXzoIB+TNVr+/nQVndviVNSaNd/466O0Y8tW2rrtdBo0uCmt/iF65xcAEgMCWQAAAIAwRLtGlvnznw7Q/AVn0foN0Ss375ED1PP6o5Tzm+ZiTeQ99+w++vOYA/Tbe5rRn8ZGL3AHgPiHQBYAAAAgDB0zT0iB7OliKXpmz9pLQ4ZGdxzW3//uMP1xxEG6pEsrsSbyLrn4OK36djs1b3aKWp3fmv6zPDr9gwEgvpkGsmnpWWLOHqfbOeGkrGgeF8rSS9ayyr74VsxZh3Ooh7JUKEvPaVler1csWZcIx+UEylKxbSLx2TCqkY3GcWVdfYyu73GMGrfIF2vscXoOWbPfN+fspqYt29DRo9aGAnJaltaYRw/Qt1/+Qm+9XY/uHtyUjh83LttpWfjeUKEsFdsmnj8b0TwXr742T8zZE6njSvHWVNp/Z1xS+NZG6YtoGZ9/683r6c47LuDzAImgcYs3qaqqhrpf15KWLckWawEAIFl8tHgZ5U+bRSUL54g15tq1T6Mli3fSBW2jPxBq4xZtaNOGbdSokbUxgPbsrabtOw9S58xzxRpn9u6tQ63btua1pZ4Lo3vchW+dzWujX5y2j+4feoiv27XnMO3afZg6dWjBl5PFTumY9uw9TB3bJ9dx7dh1iPZVHaHMjOg1VY+G7TsO0sFDx6j9hc3EmuTw4ktzaO26cnrh+QliTeyhaTEAAABAmKKd8EmrcM4enhAp2po0OUVHDvxMg37XjD7+JLrNfQfddZhqDv9MX32dSvfd3zTqfZQBIPYQyAIAAACEKRYJnxTZvY9Qs6an6PU3zxZrouvLFb/QpCkNaGZBfbEmema+tJceyD1Itw9sRk8+FV4NMwAkFgSyAAAAAGGKVcInxZxX99C9w5rSyZNiRZQtLt5J36xMjeqQQIqrrqihNd9vp5atjtPVXX9FCz88SzwCAMkMgSwAAABAmGJZI6v49xu7+TA1sTJj+l5q2OAU3f9AE3KQGydsD+bupSUff0+f/qcu3ZjdgjZuit2NBQCIPASyAAAAAGGKh0D2jturKa3VSVr0UexqJNn4tqypc5erWoo10VW//kmaMmkfPZZ3gG7s3YIeexxjzwIkKwSyAAAAAGFq3PgUpaZ6aceO08Sa2Jg6ZR/dktM8JjWiit/0O0KvFuyl+o3Po23bY3M+ft3rKP24fhs1bXKKevdtTm/NrSceAYBkgUAWAAAAwAXxUCvLzJ+3i/oPiO2QJpddWkM7tmyhK7Na0n8/O1Osjb4/5R2gt9/cQ+8X1aMevc6lNTHKLA0A7kMgCwAAAOCCWCd8Utx26xE+puxrr8cmi7Hi7LO9tLVyK7340jk07YVzxNroa9jwFO8/POGpKrrjrmY0/umG4hEASGQxC2SH5X5Gox79QiwRjRxVRrkjVoglgPi1bPkv1K79O3TgQA1f/vKrXXz5l1+O8GUAAKidOnU8Hjc1frNn7aGHH2lMVVWxr7N4683d9OPG02n4g03Emtjoft0x+uG77XRe6xOUkno+D7ABIHHF7Nttx86jtGvXUbFEtFOa37EDgQDEv+rqk7Rp8yE6dUpePnpUXj55KoYdkgAAouIMmtr9fB4EmE7dG1KFeHZtEy9NixXz39lNvxkYuyzGWs9P2UdXXlFDXa+L/Viv9w45TN6an3jteWbnVvSfZbFr+gwAzqFpMQAAAARVMa2VCFRb0egysdJMWUPKEEFtt2m1qz9i54uOU90z4+emZs/rj1LPHseo4NX6Yk1s3T/0EOVPrqKrurWMi5rrF57fR++/t5veLKxPt9zWnDaUY7gegERiGsimpWeJOXucbueEk7KieVwoSy9Zy3IC51APZalQlp7TsrwOUrYmwnE5EVZZJc14QJqRpwYdXSdv57VZRlOrVmlUPvm4eCZRaZ4cAOeWiBUGon1ckfxsnHvuSVr5v1Tavv20qB+XmSf+bz9NyT/HsKbY7bKCUbbLuvoYLVuyg/dVnfNG8D684ZZlRYf2x+nlGXuo7Ivh1FcKZkf8sQnV1KSIR0OLxTm0A2XpOS0rnn9TonkuXn1tnpizJ1LHleKtqYzJrcNb+39CCz/8WSzJbrv1fFrwbi+xBBCfFpVspT45i8WSasvmO6l1GtL7A0ByWDTifOpTIBay9lP58v3kEYvWsGbImhrcYbvJO71aLCSGjxYvo/xps6hk4RyxJrS+/ZrTg8MP0S194qe71M9bTqNrureknzZu5ct79lbT9p0HqXNmbJv5/v6+pjwR07T8fWJNeHbtOUy7dh+mTh1aiDX2vTSjPs15/WzKufUIjX3sgFgbWzulY9qz9zB1bO/8uOLRjl2HaF/VEcrMiG2Gbbdt33GQDh46Ru0vjI9m/W558aU5tHZdOb3w/ASxJvZi1rT4jtvbSl8S54slon4559Ptv2krlgDi14UX1pd+3C6hunXlsfHOO+9svnxO/drVhA4Aklk9WsCD2GoqZrWttoNY5jiNWs5qanfTcLZYUI8W8fXJ7fIuNfTNylSxFB/Oa3OSxv1lP93/QGyTLfl77ZU9lOE5QXcPbubLOxFrD+YeotLPdkiBSB1q1qpNyFpjAIidmAWyg+/x0J13XCCWiO66sx397u4LxRJA/Gqf0ZCemXC5L5C9oO05fLlBAwSyAJBEWA2qFIRmi0XnqmmGFAwXDxOLSS4eA1lm2H2HeAbjee/FV8uhPz50kEaNPEBn1DufPvs8fpIuPTOhitav3kZLPq1LOf2b00eL64pHACBeINkTAAAA+JGCT5ebAWdPdyMojn/xGsgy77y1mx4d04iqq+Pr8o9lMz559Cca+5dG9OzkBmJt7DVteorXGj/ztyrKn9aAet7Ygr74Mj7fW4DaCIEsAAAAWFCPclk24hGhavSUIXqa1YqmxP5ap52kEyeJduyQW+3Em/nzdlPf29SuXfHkv0t30J69deihkY3FmvjAslGXLNxJT/7lAD38SBO6/4GmtH4DWmEBxBoCWQAAAHDRcerQmf09g9bX0gFlu/yqhlZ+G581d+y1/fau/TTx7/EZzP7jmSqeaOmcJufR19/E1zm8vsdRKvvsF7rt1mq67TfNeLKqbdvj84YFQG2AQBYAAABcpCSKqr3iuXkxc//QfbR37xn09jvxmWn/5huP0vafttCDf2hCk56Ln6bGir63HKF1q7dTrxuO0pVZLemxsY14/2MAiC781wEAAIChimnyOLDy1IxmspUF8tiy5pN4XlY19bWf6jgpxHsgy0x69kd6dExj2rotPmsU69f30lelv9Cu3XV4QBuPBt9zmLZWbiVPxgm6oH0aPfqnxnT4sPUxaAEgPAhkAQAAwF2Oxp1NHokQyDKfL99B13SP7ViyoTw7sYruuL2a6px5Pi3+OD4zB99/3yHat3MLtU47Qee2aUPjnmpER48ioAWINASyAAAAYMgzcjt52TiyfBLjwfJheZR1JlMtDmIZNm7r0WMptGtXfF9mpZ9/gvKfq4rbGk/FDT2P8qzGz01twGs949Ujow7SoX0/U5MmJ6lxizb02OMsQzQCWoBISaxA9v4xRPPt5kBcSrmp6ZQiTbklYpWZilnUjT93rHGmxZKx1vYDEBHqZ1k3dZ9FQfOp4HMLAK6Qx4P1ujwsT7JKlFrZ/rdV82Fmnp4Yf31RtVKkePCjD3fyWs+77m5GFT+eLh6JP6NGHqQjB36mpk1OUfO0NvTn/2tEBw6g7gjAbYn1X/XpZ0Q/VooFq3pSPzEI+8yipfKMiYrihVTKZobdZDDWnRRE5BSKeYDoWjSCBa1D5H5n/srGUwYLaEcYfb7xuQUAiIV4zlzs729/raIvvjyTPvjwLLEmfrFaz6ee2E/ZfVvQc/nxHXz/Ke8AHa76mVo0P0nntUujkaMbx+2wTACJqFbcHsrOGSTPFCwOMqbdZlo4byWfG57Tk/9lKqb1FzVfJkEEQISxILaPkgF02Gzy1lTqpmJxo0YLn1sAcJ8YR9byVDvHkVUkSo2somj+Lvrjw42p8qf4relUZGYep/K122j7L3Wo+w3nxn3GYBZ879+9hTI8J+jSK1rS/Q80oc2V8X+eAeKd6X9+WnqWmLPH6XZOWC6r901yvx4qpAEtTbapWEJzy9jMIOrXm68JWzTPIcrSi2ZZZV98K+ass1xWyVhfEDu8qJJafThWXtDIni4FtGvGUVex7JZkfb9QliqZy/J6vWLJukQ4LieiWZYT0T6uaH02HvxDH0eBrNPjcsJ/u++++YUuvbylWDLmVllWhNpm8j+q6OnxVTTod81oZkF9sdZ5WZH+bPzxoYP0y89b6Z13n6KbslvQb+9pRqtWnyEeDS0S59AMylKxbeL5NyWa5+LV1+aJOXsidVwp3ppK+++MSwrf2kh3D17G599683q6844L+LzPA48RHT4iFiQfLCbKkJ6TmSFWSPrdTHT7LWLBnK9Wi9VoTVdrXBWsBisjb6Xp44yyDxZQzHAp2IXE1bjFm1RVVUPdr2tJy5YENkYP32aa2r0HjWY3WIJ8LkPB5xYAomnRiPOl75xqKq7ZbdBNJ7F8tHgZ5U+bRSUL54g19jRr1YbWr97G+6DGkz17q2n7zoPUOTMwY/GXX6XSk+Mb0aIPdoo1iSF3RBNatyGF/jFxA2Vd2VSsjW9vza1Hz/y9IZ1//gl6/LED1K3rMfGI3s7dh6X37DB1bN9CrEkOO3Ydon1VR6TL+uZiTXLYvuMgHTx0jNpf2EysSQ4vvjSH1q4rpxeenyDWxF58t8WoloLYw9XqxO6G1BzXrzt+Qjw5uODNi42bFQPElK+VAD6XAJA4sh/ZT12pHvUZUU+sqb0SrXkxc9WVNXTv7w/RnYOa8cuuRDFj+l4a+dAeujn7Eip8KzE+e3cNrKbvV26nB4cfor9OaEjdup9L89/H/w2AVfEdyM6ZRvRegTo1a0L0uwH6dXfdJp4cgqZ58QL/7K0RaFYMELaKCjn5GD6XAJBIPNU0kLUIK6hXq/vIMomU8Elr4IBqHoSzbLuJpHv3w1T6+be0bn0qXf/rc2nrtsRIrHRLnyP0UfFOeu7ZKnr9jXqU0TGNXpl9tngUAMzUimRPMvPsxcGzFQMAAIB1x6lDZ/b3DFofdGyw5JeINbIKnnH3cB2a/i+172miGP9kFf11XBVd3a0lTXouvjMba3XNOkbvvbObFi3cSatWp1L9xufRk+MbYugeABO16j8j+xGREEfXvFhpVtyF8h9B802IQ1ke0vQKBwCABHGFFMju35+4l1ovPL+Xvv3fmfTxJ3XFmsTRo/sx2rJ5K+3aXYcG/a5pQtWMey48QfmT99GOLVvoNOnjc/lVGfT3f5xnKzEUQG2QWN+uXa8gSm8tFhzw9JKbO2mbFyvNirP6Ul+PvAogrpRVULmYBQCIeyXNRLb149Shlv+utm17gtauO4O2bE3csUNf/tceeuKpRvTFl4lZs/zsxCp6/M8H+JA3f3i4sVibGM4+20vj/rKfytetp04XVdPdg5vRDTe1oKKF8T/eL0A0JFYg+8Y/ie64VSw40Zb6DujC55TmxUqz4q4DehHiWIgrHo8YUmddrW+eBwDxwOI4sjlyspquk/eju47khp5H6dOliVejqVX22S80+N5mtKE8Mcc+7XzRcfrmi1+oY+YJOrvRefR+UeIFgjl99/DEUE88foBmvVKfrv91C5o8pQEdPZoingFQ+8QskD11yksHDh4XS0QHDhyPSnY8T5++mubFarPigX3asrUA8cPXgmAljZ6i79cNABC/jlP+mp9oxUj1N96WkrFSQJyum3L9kzQGtVQKuPXbB0zdZ1G07g8qgWwiZQA2sv6HbXTt9S1p167EbSr90IMHade2LbTsv2fyms1EDMx7Xn+U3n9vF73+6l7asbMONW7RhoblNqHvv0ezY6h9ovZtxALXz1fspEf/9BV1uOg9qnvOa/TgQyvEo0TDH/ycr8vs/C7lPfYlfy7bxnXa5sXT0KwY4llbGvW4MmzUkOAXchWzqNsIBLsAEEnVNKPmJ/KGnLbTKIe/qWxM95ScQrGkmpmTTt2mbRZLiaXXDUdpyaeJXSOr2Ll1C7Vu25qOH0/cWsB69bw0ZVIVr9m8tV8LemRMYjU3Vpx33gma9PcqOnLgZ+qaVUNPTWhIXa87l+a8gWzHUHtEPJA9ftxLL760js67YC5de/2HNGXqatpQvp+v91dTc4rWbzhAz+X/wJ/Ltpn+r7WGz3VO07w4bzyaFUN8651L+fzGi3whl2IQrC4aIa3vJH+WAQASVsUsGpwnxnQvqpQCYjEVyTf0SvNG01Rb1aiDqFjZh/+0fGjUfvfbtD5JZ53lpfKKxGyW66/m8M/UrFUY+UriBKvZZLXM57U5QT1uaEGvzE687MyKofce4tmO8ydX8ZsmLNvxM/9oSBU/JsdnDsBMRAPZ9z/4iS669D36w8OltG17tVhL1KrVWZTduzX9pl863dCzFd1wfSs+3/vmNtSypdpvgW3z0Mgy6nzZfPrgw5/F2vD5mhdzwZsV87vDoimSnLxCBBR8XX+bP6oAdrWlUcuX+YJZVjPraxrn97nUwucWACLLrL9sK8ffL4umiBtyw2bTDO3Y2b0nUjEfPm8lzS1OzFpZ1rx46X+So1aW2bdzC51W93yxlNhGP3yQSj7cRZ+vSKUuV7WU/p4pHkk8WVcfo9de2cOzHTdpfJKy+7agXje3oLnz5H7rAMkmIoHsiROnaHTel9Tv9iVUXnGArzv33Lo07i+X0Velt9KWTXdScdFN9O7cG2jJR71pyeLefH7RBzfS1s130pcrbqW/PH4pNW8uf+mzGtyc/p/QmD9/RSdPulA762teLEGzYoh7LJhltQizabhYoyNd9PEahukYPgoAIq9iWispYG1GM8Wy3hk0upMU0HZvaLMP6mZav1qeG54T+F2WnSNqZectiVrfVjclQ8InrTrS1ePx6p+ozpnJEcyyGvNZM/fy6bHHG9GoRxrTtu2Jm2maZTt+YPghKl+7jf7vzwfo3ffq8YA277FGtG49+tJC8jANZNPSlUjPnpbndae+/T6hqdN+4MsNGpxBT4/vQj+uu4P+Ou5XdMXlzaQvQH3fCm1Z7LErr2hGE56Stxn/ZBc65xy5acTkKasp5zef0P79cgIJJ69R3kYJDEI3L/KMnM+f16pVK/n5uml+0H5ATs+h8+OyD2WpnJZV9sW3Ys46Z2X1pA+MPocGAazyuWVT4Gc3+OdWkazvF8pSJXNZXgeZdRLhuJxwtaySZpSRJ18IDy/6iU759Y9t1Wq0fMOtrCFljLBWCySXtYnWspwV1IU6Gn0/KVncNcOROT2uWHw2brj+KC1dZi2QDbcsO8IpiwWzJ4/+xGvia2pC95lNhOO67NJj9Nl/dlCP7kfpyqyW9OifGodM0hXvx3XPkMvo7cLdNP+d3dSq5SnqP6AZXXv9ufT23OD/n/F+XNEuK55/U6J5Ll59bZ6YsydSx5UiXdi6UMUpO3bsFP26dwl99vkOvnzJxU3o/fd6Udv08PodbNx0kNfI/rCmii/36N6SFhffTKmpEW0ZDRBU4xZvUlVVDXW/riUtW4JBJgAg2Z1BU7u3otFlLCtxsIROyvOqqbhmt8UheFim4SE0Uwpk89cY3GxjCe14LgDW73ViiH0q+wrUdfIy+nxkW7Kaquijxcsof9osKlk4R6xx7tLLW9Ebr+2mizs7zObsoj17q2n7zoPUOfNcsSY857VrTV9+/gu1anVSrImNXXsO067dh6lThxZiTXimTD2H8h5rTC88v5dGPHBIrI2+ndIx7dl7mDq2d+e4WPPpD4vPoonPNqD7hhySpsN0Tbdj4tHo2bHrEO2rOkKZGc3FmuSwfcdBOnjoGLW/sJlYkxxefGkOrV1XLv0/TBBrYs+1QJbdqBiW+xm9Mlu+V3rrLedR4es9qH59d5owHDx4gu66ZykVL9rCl3Pv70AvvdCNUjB8FsQIAlkAqF1Yv9hmNDNrP5Uv3x+0NRNrfpyRRyECXo2QgWqIQFfHPJDlssZJr19tjXXy5Ek6/ax2Ysme4cOH06BBIrt8CC+8cCG1bHmMBgyQr2OSze23d6XnnvuO2rZVc6Iki9dfT6d33mktvd+bqG/f7WJtcigubsmnpk1ryOM5RL1776DmzaMf1EL8mz9/Pu3ZvZ1ef3WSWBN7rgWyLLswS8zEZF3dnJZ+nE1167rbv+DIkZPU/YZi+vqb3Xx55kvX0P1D2/N5gGhDIAsAtUuiBLLGWBK8DJEVmdXMrhgZevx4N2tkP/jwLHq5oD4Vzd8l1sSO2zWyiosubUUzpu+la6+JTSDkdo2s1p49dWjsXxrxrMDPPbuP+t12RDwSeW7XyBr5cePp9Opr9em1OWdT+/bHeR/b2/tX8ybkkYIa2cQSjzWyrnw89+w5Ro8/8Q2fT2tVj96b28v1IJY566zTaMG7vXyZjR97/Cvat6+GzwMAAEAkHaeOrMtSWT1aGDTj0hm0cB5rjXWcOlgNOD3t6GI+s47WG+27YiOt4jOZ1vfph+UOKJ/chTcrjkXSKNZP9tMkylxs5IfvtvNgr+gDdQSKZNG06Sma+dJe+rhkJ3308Vm8qXjRwuQ5zgvbnaC//bWKft60lSeIWvltKp1R73wa9LtmVLwo+d5PSA6u1MiyDMVKcqe5/+5Jd9we+i5nOP799kbpH2sZnx/zaGd6duKVfB7AKja002/u+FQsOcNaBrAs2ueccwZ16thIrLWP3aBhLRgAAOJeSTNKyZGTxLBkT//qLV1I8CWhoiF169RQDKOzm7zTrTYzdbOPbBAlY6nObYXkvVrfvNiMmzWyzNXXtKR/Tt1LV10Z25vwkaqRVQwd3pQ6Zh6nvEfkkSuiJZI1sv6+X3UGPfFkI9r+y2n0zIQq+nWvo+IR90WjRtbMv9+uR28Unk3eUynUrt1xGnRXNXXr6k6NO2pkE0tS9pH9ecthurDDO3T8uJcu79KUD53jn5WY+ennw/Tp0m28r2v7jAbU8/pWjpM1nTrlpSuyiujb/+2lM8+sQxs33MFrggGs2rT5ELVr/45Yii2WlfvAnt+JJQCA+CY3Gw6R/8JC82O9zTS1ew8aXcYC5Er9OLKMFICm5BQG9G+1LcaBLKutbNjgFP35T9EN8PxFOpBl/vTnRlR9JEW66N0n1kReNANZxVdfp9Jz+Q2o8qfT6InHD1CfbPebHMcykFVUVdWhN/99NhW+VY+2bj2NHhpxiG6+8QhdcrHz5GUIZBNLUjYtnvfuZh7EMk/832UBQSwLXO9/4HNKv3Au3TvsMxop/Ur17ruY0j1z6cNiZwkPWBlPPvErPs8yJb83v5LPA0DkLBqRTimpYuo+y51meayWhe1vxFKxwg+7eBVl5paIdWHix2FWXoTEokwr4vV1OcH6P/o+n2zSfEaDPWZXwL7E1G3aZvEMvYj838SYZ+R28tZsp/wsv9pYjmU0/om8toJYpi31HdCFz80sCvxMLiqSglhJ1wG9nAexEr4fdsnSuV1Y+3GqNjQvVjz79yrqmHmCbrktuYIUf1deUUNvvbmb8idX0Yv/qk9XZLXkGYGTTaNGp+ihBw/S58t20LJPd9LZ9U7R74Y0o06XtKLxf2tIFT/KQ2UCRFPYgey78+Ufb5aduPdNbfi8Yvv2I3TZFQuo4JUNYo3ql1+OUN9+H9O4v8qJF+y6+cbWVK+e/E+jvIZglIsJs4sNTrlojvSFnSjH3oU5a3YlH0PI7ZTgIHUsLRKrIBmonwHdFPGLY1ZTkk59CsRiMDY/2xXFC3kTxOE5gWPh8uNlNTCSgBoaTYCrTv1pagyiBF+gEu73huExqVPQ765aTpvEx1+wx+wy3NdlNxG7rVqaNzr0569sPGUkSTDLAtZRywPHkWUBrpNETIynT195rNiCIfrvEOl/Q/7+6UID+2i7LsnfTfx/RHNezW7QsPVsP17WfPkRo++cyLvx10fpeC1K7cECn4ceOES9bm5B1dWBtz2SSdbVx+jD93fxZFes5rLzZa14k9xklH7+CT4c0XffbKd35+6mk6dY3ppGvN/whKcb0rr17oxYAhBKWIHsjh1HaUXpTj5/841pvJmvgg3HMzT3v3wMWOaGnq14luH33ulFTz5xGTVsKH/IJzz9HX2yZBuft4Mlk7qxVxqfX/7fHbR7d+T6JrhLvTi3pyf1GybPGd2t1lKCAxp2k/N+RBBX5GDJZDgJdnHMLuQidQOmZAZv7scuIvPXVEoXqtJk2CTP7md7My2cx4KCQdTPvxmhZNEI+XhZdlFtEMtrxAzLWUmjOwUGfPzcmQYP4kLY5XMXiTJL83qEfdMiFufCiFKr6U5wvpQmieCS3fDgn0/fZzTYY3aZ7OvLl2llERt+Rfr83TeLyv0662RPF89bM04O0qT/10kutS5IOp6hNGeyqJXNkT6L4iaO8v/edXK+9SBZCoZ924tJuRnXddIUx8G2G5o3P0XvvFt7ukOxprYzXtxLzdPaUGnZmWJt8rq8Sw0Vvr6b3i7cTR8trktt2ram6f+qLx5NPqwv9F/H7ad3395Nr8/eTcdPEPUf0IxuH9iMnhzfkL77PlU8E8B9YQWyP6zZxwNWpkf3VvKMwGpJF5Vs5fNDBmfQJyW9+VA5/W87n5564lf0zRe30dlnyzWqrOkx6/dqV4/uLflftu3adfv5fLxSLtxMgxELsnPEWHUFi4PUtCrBgVktFzDn1D+dht3XPi6mwfcEv6JSahG4YbPVC2gxFYsbHJFSsWEd/2t2Een4s12xhOayANnohotSA5M1juYYDZHB+snpzsMy3syRKc2bofv/yJ4uPUZqsJ+RKV8oy6+b9ckbRMXTnf+v+AIVzT7CKtPgPWaZVjkpCBocRvAX6XMRE0o2W+kzMcb/hkiwx+wKtq/eufLnT3p/JpeY/JZpg7QQNyPjQz3KHeFusLVoRLOQrYRYZmEvvzGgx24eWBkuh+Gfc/F9oMcSRUn7efgCsRwbA++oprnv1K68Hh7PCTpc9TM9+qdG9NKM5A3qtC7qdFwK7PbQFyt+oQ3lZ1C9hufxwO7QoeStmWb9Zcc/uZ/WrtpOfxu/n06Toozf39eELuyQRn+b2LBW3MiA6Aor2dPrb/5Ig+9dzufnvX0D3d4/nc8zA3+7lN55V77g+nnTQGrTOrB5Besv+88X1/L5Lz7vS1ddaa8fxdx5m+jOQf/h8/9+owfdNdB8QHMlGAg6dhxr2sfu/LILSZcv5tiFon+TtIDmkiGxpqVysGC6rVuZHSE+KJ9JSdDPC3vfp7SjFREIQpT/HbPyHX+2xbEFPpfVDAZJ+mIq1P+H+rgsGv8jNsoM8f3jO88siA8n2Q0Xi3OhUo7F6lieQQU7b25+p4fal/J4sPfHzdcTcWLMWKqWPhu7w/xsuLmv6HI72ZPitLrn0/HqnyI6Rmcw0Uj2ZGbEH5tQ/fqn6NmJVWKNe2KR7MmqI0dSaNJzDWjSlAZ0928P84zOngtPiEeDi4dkT+HYuOl0Kllcl95482w+3/+2I3TH7Yfpos57kOwpgSRdsqdt29S0+i3P1Xdsz8xsKP2jtqOh92ZQ6zTjPgJXXdGcunVtwactW8xT9L/9ziZ6o/BHKvlInxyqVUv1jqb2tcQjfpdZ1K44r0EL3bwYzYqTiRTQPSNd9DLShW/QgM4zNCJBrBVOP9ty8pYu1NH/il+pqZWCK6Mmx+YukMe4DJNcO6k0e2UBH6ttVqbAfrj650eOp32mPFNWQeXynO3X6hgLwHT71h8vb7IsrTPsG61sy5ssy82XlRsfvLm0b5/6Pv3KsWkn/3PMy2WBIaNrSjqWxgd5zG7ugGDl+PYlamVTyhaGGGM1UVSL35t61Cf1fErp3tBBs/YzpPdb2pYHsZJh1fhdEgYOqKa582rnaAvT/7mX19x1uCiNdu48TaxNfmed5aVxf9lPB/f+TL+6rIZy+jenPjnNafHHyZ/8q90FJ2hE7iFasXwHfff1L3TpJTX02uv1Kb1dR3okrx0f4ufo0eTuQw2REVYge+CgmnKbJXvSGv9kF3rjtR5UMONaSjH5bLZoUZf3sWXTD2uM78zt21dDd939H/rdkOX0z+ly7a2Cjd+p2H/AefrvRBK8eTGaFScVX0CXjO/nUlrAmw73pb5+gazzmzGbaK3oy6sPjkXfT1YDOWy2HGxLf8snr5Mu0M0DGznI0tZaMqwfrpUA0VmZlmR5KEPMKqy/VruvSzxfCeI0eJkR6U+rD3a13OgnHDlK1t2VNLc4sjc1oiV7+k/kLRI3icsaUgYLaKWp27TgiVzY8DzseSmprUT/etZKQtqX5TFlk19tbF6sdc+gw/TBgp10cZeW9O782ncecu8/RGu+305/HHGInpvagGf+fXlW7Whyfe65J+mB4YfotVf20Ia16+jGXvvog4X16IquLenXvVvQ1GnnIAMyWGYayKalh67a0NbC7tolj5tlZTvFtdec68s8/PqbFXTkyEk+r6XNeJx9sz4rcq+bc8Ucq521lur8m/EDxJwdS+ls3x14K5N8MWjnXGgF3a73TTSczxTSAk3tB9/GQU2Wk9cYkeMyUavLqqiQAzrN+2mtLP+auVCTcVAll7WZ1q+Wl624JzDeMVaymAddylAa2uMqX2ftZkzAuRD7JMqkDppAdtGIHjSaRJ/a6T19r1GpSS4eVkh9zAIyKchjz2nVqpWmxllO6hMsmFLKbM6209SUWyqz8BExo6cMP2I6bEi9JnzfymT0Wu2ei4ppozWBiLpvdj58/Xat4sfVlkYtV/v8sqbFyj69ommzWqacXEw599pkSUo/Yd4/WelPKd4r+fUtpSde3Gz4mFKOEbP/L7Ny2L6GarbhteYpUsA9b0nwYHv1RmphUlYw1v7/AznZzrdN793Scf4kvWfqzeLSPCVQNZ60Y8x2ncyG6vkpaIuSaB+XV0nuYUNY59BA/9uqaWHxWXT8eOCdfrfLCiaWZbXPOEE7tmylf79Vj/46oaFYqxft44r2ZyO79xH66MOdPPPv6h/O4E3OH36kMZVXGAdy4ZRlVzTKOvNML2Vn76P/LPfQ6m+309g/HaDKn06n7L4t6Nrrz6VH/9SYlpoMVxXt44qH7w0z0TwXr742T8zZE6njMg1kt1WKq5cg0tLUu2g7dspZg61sp2BBLEv8xJRXHKCb+nxEn32+gw4cOE4/bjzIMxr/5clv+OMd2jeg+4bo6yGee/YZMad/LcFcPs7ZG3CP+GuHnXOhFXw74+bFbBsnNVlOXmNkjssYytJzup0TvCybN0feCMzRYkhpVqwMpaEelxI4GzQ59qM/F5t9zbC7Ts7Vff55EKLps+j/GvnjBs2yeZAl1itlZU+fLd9ICtF8VClzp8n7ZVYmN2iKmFEp/ZTZ+2CUjIm/1qpvxZLM6LXaOxf6LL3aQISdDx78mh2DEYPjCqSUyYLY+cSSi/neZ9Z8XgSz/gm9/LFtUsyaAgWh/0xZo9vG45GDbTPKjciyCnot3LJsCPu4JPLYsfLwOsaJlDSy9lO5GI5nxcjQraWifVwx+WwYMGteHImyzMRDWfPe3k3nnXeSMjqmBQRw0T6uWH02WObf56fs4/2mL2x3gm7JacGz/r63QP/5cKMsq2JRVq8bjlL+5H1UvnYbvVqwh1qnnaAJzzTgibIG39uUXpldn7Ztl5ujR/u44uV7w0g0z8W9v3dSIRi54wqraXFrTfBYIQWiTjwy6iI+NA/DgtjrehZTw2ZvkCdzHh9jtqbmFJ1xRgq9PruHr/ZWwYJdhVk/XHf0pBm+O/BWpsgmTcl+RNRM6JoXK82KYzc+XiLZtPkQnVZ3dlxM7PMelEFT0uDc+rwupVyeOIwFMm5+ps2bFTvFaxrZ992w2eEnDwpK6Ye7ktYGrXILg+mwISy4s/M+hPlafTXcdvsqh0Ep0+yz4elFA/kxraP1kTr/4fC0o4tZlaymH7NeTxrDa6MLqU/cNpEORR4/Vg5qTabl+41bDYDOnQOr6e251m7CJ7v7hhyiRQt38gBu2gvniLW1D0v+NfIPB2nDmm30hxGH6M3CenRum9Y06bnmtHtP8Cb9ySbDc0KKEQ7Sp4t30p5ftlD/ftX0+YpUujKrJR+v9vEnGtGnS5O/fzEEF1Yg+6vLmlKDBvI/VnGJPhGTVaedlkIfvn8jjX74IrFG76JOjejLFTl05RWBmb8WiTIbN06lSy5uwudrBd/FnKZ5sVJz5mJwkOzYsE3xMIVsrmJ6URwhvsQ+rM8ly2ZrJ3OwBX7NivWUfq765sHBsKRAylA95RZqCIPWhobUljp0ludWbbDeDzK8MiW8OatcQ2ld6Ndq6XXZvpHiArPm075jiuCNhAjjNdmsZrlMDIMUTn/pqGPZh883TuoFtt16yxH6eEldJLkRWAZfFsD9uPF0Gv5gEzpwIKxL1ITX8/qjvMnxqpW/UAp5acRDHrrltuYBtbS1AUuUxTIdz5q5l7ZWbuXj1TZpfJKe/nsDOqPe+XRr/+b0wvRzTJtkQ/IK61vizDPrUN8+5/H5L7/aRdu3y/1k7apb9zSaMukq+roshx4dfZH05X4ez3g8e9Z1fN1llwYGqdu2V9M3K/fw+Zy+5/Na29pDSSqiNi9WmhUbBweQkHzNFOO09skh/2bFekotorVjZkGsnBRICrjNhjyJkIvbR6jmV9sHU+kXWjAkrKzIEXut4Iyv/3timpmj9IdtRsWOB/AD5s47quntWpz0yQhrYvvbO6vpvHZpNOvV2pEAKZgWLU5S3qO7ae5ba+mhB+Ra2ibntqHxTzekNWtrVy2tgmW9znvkIC35aCcdOfAT5Q47ROs3nE79bm9O6Rem0bDcJrzZ/r59tftmSG0Q9jv8m/7qBdKrr6mJmZy4vEtTmvyPq6ho/q95xuPf/87Dg1wjr85W66h+oxm/1owy8H/puk38r5GKDev4366Z/oOlu5M8x02ePn01zYvVZsXGwQEkJF/N+0oaPcUkMZChMD+vvSeKQIr1sSzk2WzdG1pG9IF1oeWAL4hlNbERbs6vspf8KmysX6hIMsQy9tp7H1x6rdFuEcCs3mjS7NZ6H+qYqNhIq0iK7ILUYvuG8uGfW/Z/Fq3PrhuqaUbNbpFwkKlHt5wpB7WhMhmDsdo8DE8wrDZy/+4tVFqWSr37tqCDBxGQMH2yj/Ba2h/XbaOmTU7RHXc1o6uvaUn/mlmfjh2rnTX7p59O1PeWI/TPqfvoh++203//s5O6ZtXQu+/Vo19d1ZJ+dWVLynusEZV8VNcwuRoktrC/GW7JbkPp58v9U599bhXt3XuMz0fS7t1HeVnMhe3Ood436bMZG/GNwWg4bA2jDl2TELUX2ubF09CsODm1pVGPi2w8BUOCN+ermEXdXB8KhfW1lRMGleaNdmdMUqUJfJhNR1kw4Atio1kT6yAzeNh6T/Rl+WXBrOVmneG+VpMM6cHYaW5tyJcMySSZlu+YrDc9j6pQNa3S/+kEJWlXlFsQuIcFs6Iv7Jr91E1cF6qZjFu5N35xLcACE3ZxfegQLrCNFMzYS6NHHqDb72zGm46CrHHjU/TQgwd54PbPqXvpu+9T6bqe59LA3zajhR9aG8UjWZ1/3gkaeu8hertwN20uZ0mj9lKrlqfo+RcakKdjK36enhzfkJYtP1NsAYks7ECW1ZhOfPoKPr9//3H628Tv+HwkjX/6fzyzMfP3Z66g1FQLh6G5KOsTUGPKxi0UyWIML/riK9mTTNO8OE9OyINmxdY1a1qX/vVit7CmemfJfTEyPA0MH7c6TX2O35Ew1jvXlyF0Zk664bidvIZHJGWSufl5VbJku9MnUWkCH2xoHaX1hDYrt5Yvgy9rghvBYCCg9Qa7WSDOs39m5Ehj/Srl4XTY5yBwHNvIvFZNhnTpsxcQQLO+1OLzqIxv7Z9N2Ff76Ee5sRg4TI2SDMlgDNwYnn+reKseb5DvYiXQtT1Gcpzy7KfPj4mgVhlvls6Q3jvR9Lh7wwRNaBVdWVcfo/znG4gl8HfzTUdpcfFO3nT0qm4tpb+o/de66soaeumFvfTlil/ojgHVNKOgvtz0+G8N6YsvU8Wzaq/LLq2hR0cfoEUf7KTKim008W9VdJoUNjw5vhF5MtPohpta8OGf/rMMiaMSUYp0IRt2DxeWsObqaxbS19/s5ssL3u1Ft916Pp9327z3NtMdd8kXT12zmtPny/qS5YzYmgshY+qQD25T+/IZcViu7ngi99rBWOMWb1JVVQ11v64lLVsSyctS7Y2WIFhgF05CIRNK4Og/BIvC+mdbOQ6WQCpI8Oz7XBs9z+K5MNzWmuDHI/GrBVaez4bACStjMgsMWdAX5H30BfHi+DJsvlb7Qpxv32tlzdlZcrBAXbO6UGmZ9Bp1x2X0fOU9C1Gm/zEFO28WzqllIfclv+5HyrrQFLPvYjdfTxxbNOJ88Tmtlt7T3QkdtH+0eBnlT5tFJQvniDXu27u3DmV0SuOZWaNlz95q2r7zIHXOPFesSQxffZ1KvxvSlIbdd5jyHgkcLWPXnsO0a/dh6tShhViTHHZKx7Rn72Hq2N7acbG+oSwp1Muz6tOuXXVo0G8P092/rabMDqGHw4qmHbsO0b6qI5SZ0VysiT42Tu2y/57Ja2h37jqNmjU9RT26H6Ue1x3jf1nTZbu27zhIBw8do/YXBiaqTWQvvjSH1q4rpxeenyDWxJ4rnQ7q1EnhiZnq15fvkt3z++W0+od9fN5N332/j35/33/5PMuWPGvmddaDWIb1N6uRfpSMKsB4f6UECwR9zYslaFacxNrSqOWs5lSMC+qPXRSzmtV4vzBWmoWGqo0yysodA10njws433y81hg2Cc2ernx/sZYl/Wm2fO8wgq9VfPZEP10t7Ti7cisA/88nC0wracXjoluHjvR8JZFVALlMpTm1VqzPf1AlM3jw7a2l38UV05SmxUoQK8k6Hv2M1wmoSZNT1Kf3EXqjMJLDCCaHK6+ooXWrt9NZ/9/efYA3VfV/AP92l9JF6aKUaZmKKC5w87pYMgRBQVH/IigqgoLrFRevOEBRFBQEFZAhoGwoe6iACxxMKbt0t3SmbTryv+fktmlKRxKaNDd8P89z5Z6T3J6ce5KaX89qUIpG4dFYwu2LqiSGHovhtXt/SsLm2BT4eAOvvR6ETlc3wf8mB3F13wrEfOw3J2Zh++YUHPwzEZPezISXcnve/SAQXW+ORLdbIvDiK8FyyHZ2NqcAOJs66ZEts2bdWfS7bwvEbiIhIT5Ytrh7+R6xF2vzlgQMHrpd9oCJwHntyrvQs0dT9VEix3Ncj2z9KusFvNgex7Key+p6ds2U9Vw5eg6sos56WB1AS6/VtZl6kUeuOoVZPav+slPe2+8qPbJxQbjp8iDsNvsWUYRphxJdZnSQI3pkhT/2eWPU6BD8vjdJzbEvrfbIVpSZ6Y6nnglBYpIHZs9MR9u2xeyRrcWBg15ylezvljbEtdcW4oqORRg0UIe2bYrVZziWM/TI1mbvLz748Scf7FKOHCWQTUv3wE03FsrjlpsK0KpVifpME/bIOk6d9MiWEdvmfPjB9fJcLPp0d6+NmPbJQRQXl8o8WxQVGTD1owPo0WeTDBqEjz+8gUEskYOUr/hdaf6jdcoWU7Nw4aEe7xrnhO59G8PrbMVkIjtRe2PFH17G96juL/bbMUUdBn7hyvhaYtxLVva+djQFsd2mJhrnyupdJ4h1pGu66OHra8DPu7kAjaWCg0ux+Ns0vPV6Jia+FYwnngxBbm6dfq11OVdcXoRJb2bJ/XpfnpCNPJ077u0fjiu7NMH0zwLwzwHOP65MzGGf8EI21qxIxY6tKXIRKfF53brNF+MmhCAiuikGDApTYpVA/PqbD0ptD3nIBnX+iR/33OVYtOA2ucdsSYkBz0/4FVdctQLfrzgte2otJebdLl1+Epd3/gETXv5Nphs08MDSxd3x7NMd1GcRkb3FjBlTYaE0sV2Pctw617pFXCwdVlxBz5llKyZbsVIvUU3E/OvybacsOS5cWOsC4meK0QNiPvhXj6NNpThWjGgw/qyyOcFDMVGzveciiA2tMLdZh3XqYk+7xzjX3DstGjsmBx9P58q81rrt1kJ8tzANN1yvx5VXt8HnX0Spj1BNxF6s77ydiaMHE7BwfpoMwIYND5ULIE14ORi//s6FoqpyeccijByRi3lfpWPl8lT8sy8JjwzPRXKKO2bO8oeXX3P06tMa70yOxspVfjhxksO47anaQDaqRVUTSWsnrntwSGvs2tYLTaOMcxeO/puNQUO2oWXMUjzz3B7EboxHcnKBDE4FcY0IepOS8rEh9hxGP7tHee4yDBm6A8fijJP5m0U3xI/be+P+gaYvALa8xoupl7VYljlXLWvvL/vVM8tp6x6K+Y/VzC2vpNqy5Pz06ufxVn2dUq46N7OqVXMvvl6WY1nmtFCWoaq/nJa9D6s5mjRpUimvlnUTxBD48pWUp9XeEynXYjAuQqaFe1idkavVlYr1aehVKXDXQr2qfG/UwhH1GnSfDrv3+CAiup+aYzlH30Nb2LusEf+XixPHjirfJwHfgBNyb1VriLKc9b1Rxl5ldbqiSP4h5e99idi4PgUR4aXofudOhEVFY8SoEKyxcEsfZ6tXVWwtq7r3Rnh4Cfr3zceU9zLxzZx0lBScweR3EtGsmR4PP7YMd/UIR3jTaNw7IAyfzfTH5i2+yMqqvh/R2e/F1/OWq2fWsVe96nSObGV5ecX4cNoBueerOK/MXWlHMd9VEEFtVd3xYgGpl8Z3kj29DRvyrxrkPC6VObJERJcqR82RLTPlw0Ckprnjg3cz1Rz7cIU5slUpmyMb3SQSL70ajPUbfPHe5Ew8OKRseyhtqqs5stZKU96Lq9b4YdXqBnLYdkP/UvTumY8+vfMR3fTCuaHW0sIcWVtUniMrVo7+5Vcf/HvMC7GbfPHrb96IjFAC4H75iGpSIhcxu/YaPby87BaS1QmXnyNbmQg8X3/tKsQdHoRXXroSbdsEqY8YicC1uNggj8pBrHiuuEZc+9qrnRnEEhERkUsb80w2dv3IebIXKzCwVO6t+uOOFKxZ64cHHwrF9yu4wrG1QkONqx+vXpGKbZuTMWpELv762xvdbo6U9/SV14LlQkhUs7CwUhn8Pz82W+6JnJkaj1U/pMng9fgJT7zwYjAaBkdj6MONZQ+4GE0gFoCj2tm1R7Yy0St/+Egm1q2Px8lTOfj1t1SlodLlY9de0xjXXxeOVi390btXM3Robx70Ejkb9sgSEbk2R/fICm9OCoIYq/bGxCxjhh24eo9s5VWLDx7ywhtvBeHIUS+8/loWBg/SVg9tffXI1kTc0zVrG2B9bAPs/9MbTzyeI4co331XAZpGWdZbe6n0yFpKrCotem5//8Nb7pksFoArKHBDl6v1coGp667To3MnPTw81AsczBl7ZB0ayFa2aMkJDBu+U54vWXg7htyv5ZUc6VLDQJaIyLXVRyAr+DdqhuT4eDRsaJ+vaJdaIFtGBF9v/y8IJaVA3z75GP5QnvqIc3PGQLai3Fw3bNvui5Wr/bBps69cUfrBB/JwjRKA3XlHATyrGVTJQLZ2omd2335v+W9WthuWLW+Ijh2KcPVVetx8cyHatSnCVZ2L5CgEe7vkhhYTERERkXWmvn8e419qpKaorogVZ8X2Ke+8nSW3T2naoik+ncGVoi+Wv78Bfe/Nx1dfpiP+1Dl5j8NCS/HJZ4FoENgct98ZoZwHyD1ZyTqiJ/aJx3PxxYwMLF6QjuL8M3KV6Tv+U4CEcx6Y+GYwmrWOQuu2UXjy6RD5h5qVqxvg5KlLY0omA1kiIiIiJ/LkyFy5uqmYP0d1r13bIrl9ym97k3AszlMJtMLx+ltByMjg1+K6ULZFzYY1KSjSnZF7/RYWumHceDEXtBn6DgjDl3P9cfgIA1tbiCHcYjSBmH6wc2systLisXVTCnr3ypejDebN98cddxv3B7759giMfjYEs770l8OW8/Kq2+tcm/iJJSIiInIyH045jxcmsFfWnsSKsdOnncf61anw8gTadIzCI//XGP8c8FKfQXVB7PX74gvZ2PNjMlIT4vGEEuSePeuB0U9Ho+uNnTFwcChmK4Et77vtWrUsxr298/HW61lYsTwVJ/5NUO53Et6fnKkEvno5j/nt/wUiIjpa9t72HxiGSe8EYelyPznkXqsYyBIRERE5mX735iM9wx0//cxeK3vz8zNg4n+zkJ4UL4dsvjUpCLd0j8CSpVzpuK6Jey0CrrffzML2rcexccNBDBuqw+lTnhg2PBQhEdG47/5QfD7LX84NJduJOfY33ViIp0YZhyavW52K3PNnZe/tY4/mwtvbgO9/8MOQoaFw826OLtdH4oFhoTLAXbHKD/8ec/4RIU4dyGZkZCI9/XyNh06Xrz6biIiIyHWUzZUVuz6QY4ghm8u/S8O7/8vEqtV+CG0SjakfBSIxsZ6WinVxQUHFuK+/Du9MysTf+xJx/EgCHn5IhzNnPPHEkyHwC2qGe3qH470PgrB9hy/0etcaGlsfRO+t+EPZSxOy5XzmA38mwqA/g2/npWOA0hZFxcCCb/1wb/9wNAhshs7XNMHQh0MRu/FmpKU3V3+Kc3DqQDamw63KL5CrajzemzJTfTYRERGR67jherHtRiEWLWmo5pCj3HxTIRZ/m4ajBxLEHh+4pmsk7h0QhjXrGqjPIHto1KgUA/rp8O47mfjjlyTZS/7C2GwUK8HVpMmBCAiJxnXdIjH+pWAs+94P8ef4B4a6IlZDHnK/Dm+/kYUflinv/YMJsgd3wTdpuLePDsUlnkhJca4dZpx6+50dO/eiqKhITVWtdevmuKx1CzVF5DjcfoeIyLXV1/Y7lQWHRePM8YQ622LjUt1+52KtVYLY2XP8kZbuju63F+KxR3IRc5kSYdmZs2+/Yytbt98R+6zu3uMjh93v2esDNzegW9dCdOtWiBuu0+OG6wvhXo9ddXW5/Y4z4fY7Vrr9tq64685bajwYxBIREZErW74kDQOHuNaXYi3q0zsfq1ekYsWyVDT0K0XPPuFyLu2ChQ1RVMQhr45y7TV6jHkmB0sXp+HsyXP4eVcSBt6nQ3y8B154MRhefs1lr+3zExph3oKGSvDFRaRcFRd7IiIiInJid95RIHv+vpjtr+ZQfYqIKMWrL2fj2OEEOZf2j33eaBgcLRfN4dBjx2sWXYLBg3SY+n4mdu9KRknBGXz+WQbatimS82rFqsj+jZqh38AwTHg5WK7Ue+Ikt7ZyBdUGslEtuqpn1rH1OlvYUpYj68WyzLlqWXt/2a+eWY730BzLMmFZ5mwty2DD6jhaqJctWJaJuEar7w3xxfz1t4KRmnrhV7e6LqsmrlyWLe+NwUOvxscfnoc+76zsFfxyjj8uaxeFp54JwY6dvuqzzLnyPbSFPcoSvbZiP+Zv5qbj0N+JSI43zrWdPecTuVLvXT3CcdW1kbi7VzheeS0Yy5W806erDm5FWc78e8OWawRbrvt63nL1zDr2qpdTz5ElcmacI0tE5NqcZY5smR9/8sF/Xw/Grm3Jao5tOEfWvnJy3LBwcUN8t8xPDmsd+kAeBg7Il1uh2IJzZO0jM9Mdv/3uLXvUxSG2uxL7rV59lV45itDthkJ06FCEyzvWvF5PZZwj6zgcWkxERESkAbfcXIgedxfg/SmBag45o4AAg+wN3L45BX/9noTWrYrx0qvBiGzWFE+PCcG27VX31JJjBQeX4q47C/Dyi9lYtiQN2zal4OS/CZj4ajaaRhXjp90+cri4mHN7/Y2ReHViMD6bGYBdP/ogK4shlDNgKxARERFpxKsvZ+GXX72xYpWfmkPOLCKiBM+MzsVPO5JlUHt5Rz3eeS8QjSOi8cj/NZbtyH2CnYcIbrvfXoDnx+bIIeNij9X87DOYMT1Dbk9z9F9PTHwzGC1iouR2TH36h8kAd/F3fjjCRaUcjoEsERERkYaIPR5ffDkYcce5YI2WiKB29JO52LoxBafiEnDHfwqw4Fs/ePg2x/0PhMrFvLgvqvPxVD5m112rx0ND8/Dpx+exc2syMlPj8fmnGXhqZC4C/EuxZq0f3pgUBDfv5rjjrsvwwvhWmPmFP1avbcCFpeyIgSwRERGRxvyzPxGdrm6ipkhrAgJKMfyhPPlHidLCM3js0Vz89bc3ut0cic7XNMFbSlAkhrCS84qOLkHvXvl45aVsLFqQhu8WpsGgP4PPPj2H7t0zodO5Y+5X/nJhqQaBzfDwY40xXDne+yAQq9Y0wPETDHAvFgNZIiIiIo3x9TXgx+3Jcr9M0r5ePQrkytRiX9QF36TJebZiCGvD4GZ4/IlorFrdGKfPMPDRgg7tC9Cn93mMfz4bq35IxfGjCTifEo8XnsuRc3Kzst3x9Tf+ePnVYHg2aI4ruzSRc3E/+TQAS5b64c+/vJGfz32JLcFAloiIiEiDxBYjb0zMQv9B9bPqK9nHlZ2K8PzYbDmENTUhHgP6Z+HIET/c9p9wtLs8Cs881wjr1jdAthIQkTaIPzxddZUeDw/Lk3sPr/w+VS4wVZh7Bgvnp8mtm0pLgVWr/fDYiBA0joyWc3DF9kCivT+dESAXCTtVzRZBlyp+AoiIiIg0qk+vfDzycB7uu9+1tvogIz8/A/r0zsFLL56V82rXrExBh/bFWLm6AZq1jpI98mJF5K3bfFFQwF48rfHwADpdUYTBg3QY91wOFn+bhv2/JUGXdVbOwZ3wfLZs72NxnnJBqe53hsO7YTM5rWD0syFyD9y5X/vLYeiJiZfe/GoGskREREQaNqCfDg8+oMPgBxnMurq2bYrx9FM5+PKLDGSlxcvhyI1DSrFwsR8ahUfjhpsi8eIrwdi0hT22Wifm4IqhyKK9p087L9v85LEE5GXGy4C3Z498BAWWYs9ebzkM/YFhoXIouphjPWhIKCa9E4Q5X/ljx05fl11EzM2gP10vi34//OgurF13FplZepkODvZGv3ub45u5t8g0kbPatj0Rwx7ZiZSUApSWGuDt7Y6QEB/s+6UfmjRpoD6LiIi0buOmnZg2fS5i185Xc5yb6LFZtKQh1qxIVXOqlp6hQ2JKDq5oH6HmuIbU9DykpuWhY7twNcc1pCh1Ss/IQ4e2tdfr19+8sXOXr1zRWsy3bNWyWO4/fOcdBbimix7RTUvUZ9a/5NRcnM/MR/s2rjU0PjE5Bzm5hWh7meP/sKTTucm2PxbnhXNK8PrPAS+ZjlPSXt4G+PoY0KpVsdzbuE1MMZo3N563alkiFyCryYzP5+PwkWP47JNJak79q7c/1YgAtiyIFTIzlbRyEDm7wsJSJCXlyyBW0OvVNDeCIyKievTgEB2mf3Qet3R3rQCVLHf9dXpMeCEbs2Yae2znfZWBdm2LZa+cWBG5eeumePChUHw9r6EMesm1iKHoYo71wAE6jHnG2HO/fXOKXETs6IFEfL80DU8/mSvfE0nJHpg33x8PPxqKpi2jEN2yKa6/MVL27Iq9cb+c64+t233lsOaiIuccts4xB0REREQuQvS2vP1GFpq1aso5k4TOV+rxzOgcTJt6XgYzP+9KQr++OsTHe+LZsSFy39Nut0Tgf5MDZW8+t4RxXV5eBnRoX4RePfPle2LypEysWJ6Kv/5IRHZ6vPx3xvQMDOivk3vj/va7Nz6YGojefcPRMDga/504Fn/+1UP9ac6h2kA2qkVX9cw6tl5nC1vKcmS9WJY5Vy3LFryH5liWCcsyZ2tZBhtGSGihXrZgWSbimkvhvdH99gLs+SlJzpk8fMRLzb2Q1uplKVvLuhTeG82iS/DAYB0m/jcLv/ycJPc9nTY1E1FRpVi33hf39AqXK+Y2DN6OiW8GyUWlzsZbNr+yPutlKVvLcub3Rl3di8aNS3HdtXoMuV8n98ad/XkGNq5Lwb+HEqDPO4sXJ8zBvv22DSu2V73qbY7svQO2yDmyFYk5siu/v0NNETmnDbHn0KvvJjVlEn9qCJpG+akpIiLSOq3Nka1Kjz7huK+/DiNH5Ko5nCOrNdbMka0LGRnu+PNvb+ze7YM/9nnLQ/TsFhW7ocvVelx9lR7XdtHL3v+LwTmy2sI5shU8NPQy3D+wpZoCBt/fCkMfbK2miJxX27aBmPRmF/j6Gv9C2bKFv0wHBnCuCREROZfYtSkyEBkylCsak2VCQkrxn9sL8NqrWXLo6ZkT5/DVnHSMG5Mth5wuW+6H8S8FIyCkGW79TwTGjGuEJd/54fc/vFFYyOHs5Dj1FsgOUQLX/v1aqCngvv4tMHhQKzVF5Lwuax2g/HLvXB7INm/uL9MBAZxXQkREzkcs/DPwPh1Cm0TjwMHqhxoTVScstBT33F0gh5wuXZwmFw1KPBOPd97OlKvf/v2PN556JgRBodFod3kUxoxthLcmBeH7FX749xi/H5F9cLEnIiIiIhc3eJAORw8kYNwLjTD5Pdcaykn1w9/fILf2efbpHEz+XyZ+25OEgpyzWLMyBXffVQAxd3HxEj/c2z8c198UiS7XR+LhRxvj/SmB2LjJF6dPcyQbXRwGskRERESXALGYy+bYFPj6luKuuztj5y4f9RGiutO2TTH69M7HmxOzsPy7NBw9mIDdO5Mwd3aG7NU9n+mOpd/7YfCDzdH56i64+rpIPD0mBJPeCcIyJf/vf7ycdrsXci4MZImIiIguIc+PTceC+YfxxtvBeOa5EM5rJLvz9IRcJOqhoXl4751MzJ2VgV92x+G3X/bj6zkZuP22AhQVQ86/FfuatruiCVq1icI9vcPlHNwvZgdg02ZfnDrNYcpkwkCWiIiI6BITGanHji3JuP66Qjmv8d33A9VHiBzH29uAqzrrcf9Andz/WMy/FfuZnjiagO1bUvDC2Gw5BzfuuCc+/DgQ3e8Mh5dfc9mL2+++MLzwYiN8PstfBrknTzHIvdQwkCUiIiK6RA1/KE/Oa8zJdUd402gs/o7byJFzaNmiWM61FXNwp75/Xu5pevJYAvKzz2DRgnQ8/n+5aBpVjH8OeMsgt0fvcLh5N0ebDlFy26lx4xvhw2mB+GGlH/78yxvZ2Qx7XA1blIiIiOgSN3lSJg7+mYDNW3zRoVMTBrTktMQw5Q7ti9C3Tz6eH5uDmZ9myCBXzMU16M9gw9oUuVVQ+3ZFSExyx8JFfnhsRAiu6xaJkIhouejUwMGheOOtIHw6IwBr1jWQ83JzcjjEXmsYyBIRERERwsJK8dWXGVixPA1r1vohpn0U5n/bUH2USBtiLiuWi0qNeiIXU9/PlFsF7f8tSQa6x48kyEWnhg3VITy8FMfiPPHlHH85L7f7XREIDotG52uaoO+AMLz2RhCmfBiI75b5Ye8vPkpQbNx2kZwHA1kiIiIiKid6shYtSMPG9SnYus0Xkc2ayjm0eXnssSJta9SoVC46dV9/HZ5+KgfTp53H6hWpcl7u73uTcDouAQu+ScMTI3LRulUxUtPcsWKlH8aND8YjjzWGh29ztLgsCjffHoHnJzTC+JeC8fH0ALna8m+/e+NsvAdKS9XCyO4YyBIRERHRBS5rXYx5X6Xjr9+T5BzaiOhojBgVgn37uf8nuaagoFJc2akI9/bOx/89mocP3s3EkoVp2PNjMjZtSEGR7gx+3JGC9ydn4rZbC9EkshSnz3jK1ZZnfB6Am26NRPNWl+PmWzth+P81Rv+BYXJrocnvBWKp8hyxKNWBg17IyGAIVhd4F4mIiIioWhERJXIObe75s+jWVS+3Q7nq2kg5v1CnYy8tXTrclcipebNi3HRjIfrdq8ML47Ixbep5udryN3PTcebEOcSfPogV3x/BuGdz8Nijubi8ox55One54JRYlOrBh0LRpmMU7uwRjpYxUeh2SwQGDArDm5OC5F66c77yx9p1DfDn3944l+CBkhK1cLpAtYFsVIuu6pl1bL3OFraU5ch6sSxzrlrW3l/2q2eW4z00x7JMWJY5W8syGAxqynJaqJctWJaJuIbvDRNbrpv45hX4aUcy5n2VIecXhkVF49HHG8uVYWuihXvI94YJyzIR11j73ggLK0Lv/l2UYDcfo5/MxTtvZ8o/BolFqf7Zn4j0pHhsWJOCndtSlEA4E48MNw5l/uDDr/DLr96YNccfH0wNwA03RsLHvzlCm0TLBapE8DtseGO57dDMWf6Yt6AhGke+ij/2eSM+3tOqPaFtuRdfz1uunlnHXm3sZtCftv5TW0cWLTmhNMZOeb5k4e0Ycn8reU6kBY3CFyIzU49bb4nEzq091VwiInIVGzftxLTpcxG7dr6a4xrSM3RITMnBFe0j1JyLI4JYsTLs2vUN8OAQHR58IA/33FWgPuo4qel5SE3LQ8d24WqOa0hR6pSekYcObV2rXsmpuTifmY/2bcLUHNeQmJyDnNxCtL0sVM25eOnp7sr7wB0J5zyRnOKBpCR35Be449gxT6SkKo8peYEBBuze6w1fXwPCw0rR6Qq9EoAbF3ETh9iqKDDQgLDQEpkODytBaGgpfHwsCwVnfD4fh48cw2efTFJz6h8DWSIbMZAlInJtDGSto9e7yW17xDzA5T/4YUC/fAzor5O9UuLLtb0xkNUWBrL2kZWlBLZKcJuWpgS8yR5IVc7FkZvrLhejSlXyRVp8XuOOe8LLSwl2leC2adMSJdAtRWhj5VAC3MYhxoC3sZIW55u3rlSu24dZM/+rllT/GMgS2YiBLBGRa2MgazvxJXnFqgZyxdfDR7wQHFyKHnfno2ePAlzVWa8+q24xkNUWBrLOITfXTQa3aWki4FX+TRdBsLvynvOQi1KlpBjP//03G1FRv+D3vVeqV9Y/LvZERERERHXK29uAIffr5IqvYmuTSW9mypWPHxsRglu6R8gFb8SiNidPeapXEFF98Pc3oFXLYlx3rR69euZj+EN5eH5sjpzX+/lnGXIf3h1bkvHfV2ah6w3L1KucAwNZIiIiIrKrW28plIvd7P8tCT8sS0O/vjq5qM0dd4ejd98wPPxoY8z60h+HDnupVxAR1YyBLBERERE5jJiP98BgHb78IgMn/k2QvT733F2A/X964/4HQnFXj3D06BMutyPZENsAmZn8ukpEF+JvBiIiIiKqN82bl+ChoXn4YkYGDv6ViOXfpWHcmGyIjUQ+nemPBx4KReu2UTLIfe+DQOz80UfO4SOiSxt/CxARERGR0wgKKpU9tG9MzML61amIXZuCrZtSMGSwDlnZ7li0pCE6XBmF6JZNce+AMEz7JADfLfPDkSM+6k8goksBA1kiIiIicmpiMZpB9+nw7v8yMWtGBlIT4vHL7iSMGpErtw8RqyOPfKopLu90LR4YFip7b19/KwhLlvrhwEEv5OeL/l0iciUMZImIiIhIc5pGlaBP73w8MzpHro68a/sJHPznd7z1epbsvfXyBFat9sM77wahcWQ0mrVqiv/cHY6JbwZh6keBWLHKD/8c8EJBAYNcIi1iIEtERERELqNduyLZezvxv1lY/G2aPHRZZ7HnpyRMfDUb7doUIznFHQu+9cOw4aG4p3cYIps1xY23RuChRxpjihLkzv3aH1u3+SLuuCdKStQfTEROhYEsEREREbm86KYl6H57AR4alocp72XKbYD+3peInVtT8NfvSfjwg0z07FEALy8D9uz1xrsfBKJnn3Bc260Jolo0xfU3RmLg4FC89kaw7NFd/J0ffvzJB6dOe0CvZ68ukaNVG8hGteiqnlnH1utsYUtZjqwXyzLnqmXt/WW/emY53kNzLMuEZZmztSyDwaCmLKeFetmCZZmIa/jeMGFZJldffx263lCAYQ/mYeyzOZgzKwNbYlNw7HAC9v+aiD/2JmHG9AwMG6pDs2hjj+6atX64s8cpDH04FAEh0QhtEo3O1zTB4AdD8fjIEBnwfjYzACtWNcDPu31w/IQn8vLcXPYeunJZzvx7w5H34ut5y9Uz69irXm4G/WnrW6aOLFpyAsOG75TnSxbejiH3t5LnRFrQKHwhMjP1uPWWSOzc2lPNJSIiV7Fx005Mmz4XsWvnqzmuIT1Dh8SUHFzRPkLNcQ2p6XlITctDx3bhao5jpae741yCB5KSPBF/zgOJie5ISvZAaqqHTCclKYeSFsT83pCQEoSHlSIsrESmxWrNYSIdquSHlyqPlyK0cQl0BblKm+WhQ9v6qZe9JKfm4nxmPtq3CVNzXENicg5ycgvR9rJQNcc1zPh8Pg4fOYbPPpmk5tQ/BrJENmIgS0Tk2hjIakt9B7KWEr2yKUpwm6wEtSmp7jLQzcgoC3qVdJoHSoqBY3GeSEsXw5aBdm11cHPzRqgS5IY2LkXr1sXwUGLiRsEi4C1BREQJAvwNMvht1KgUjZV/fXzq7Su+RRjIagsD2UoYyJKWMZAlInJtDGS1RSuBrLXiE3Q4eaoQQQHhSFOC3LR0d+TluiEh0UMJBN2VINhDzus9fMRLBsTnz7vL7Yp+3+cte3mDgwy49tpCeW2wkhZ5IhAWwXKQ8pixJ7gEvj7GPXyN15QiIMAgf669MJDVFgaylTCQJS1jIEtE5NoYyGqLqwayKUqdbBlaXFjohqwsd2RmuSEnx10Ofc5U0iKvtBQ4G++pnBufExxcKrciEufiaN++CJu3+MLdHQgMNODWmwtw4qSnPA8MKJWPi+f5+xuUoxRNIpUfCHFuUALgUoQ0MvYIGx9X8pTn+PkZzHqJGchqCwPZShjIkpYxkCUicm0MZLWFgWzdE8FwdrYbcnONQbA4z1aC4iK9m+wZzs01PuatBKinT3vKtAiaxXDng4e81cfd0KJFMX79zQfFxW5o2LAUV3YqQny8mxLYirnC7srjJcjXGR9r2NCAxo1LZRDt16AUDRoowbMSQHt7G2Qw7Kek/ZTnyX9FWjka+Brkdb7Kv+J59YmBrOMwkCWyEQNZIiLXxkBWWxjIOj+xJ29enjvy891w6mw+kpL1CG/cGAVqwCweE3OIi4qgfMdyhy7f+FxxnRgyrVOCXZ2SLioy9iTLtHLkF7hBr/yMHCVoFsGyCGjDw0rkuQiExdEksgSFehjTyuMR4aUy7esrDoOcf1ys/FxxLg4xxFooS4teZTEvuSzt5wd4ehrgowTOoqdZ5IkgOjWdgayjMJAlshEDWSIiJxb7Ctz6LlITRiNXn8YXPZQvP2q6NgxktYWBrLbYa2ixGDZdoAS24hBBrwiExSF6l8uCaBH4iuBY9B4XFBifL3qAM5Rguexa0cObkOBRnhbziI/FeZWnYy4rwr793kowbPzZXa7WY8dOX1m+t3cpbr9Nj/1/eqmBLnBNl0L8e0xJK0GvODq0L0Z8vIcMfr29gebNi2WwXvZ4REQpdEpQLx738lK+dwaXoqhY/Gzj88WQbsFbeUzkNfAzwMPd+JhIiwDdw8M4z9nL05gnAu+yx63FQLYSBrKkZQxkiYicU9z0AWgzfp+aMtdtyg7sfs6y7xsMZLWFgay2uOoc2XOJOUp7FaFFdKgMeI2BLuRwbNHzLIJecYi9aXOVwFqv5IuVqUVvr+iFLnvcx9eAtDTj46KHWqxKnZgkVrE2Pr9RsAFnlUBYrzwm8sRq1qdOe8rHRFoE3qdOecreaxEAi8fPnDU9Lla6FoG8DHSVYNi/YakMwsV5WZ7oZRYBvkinpCSiSeQu7Nh6u1rT+sdAlshGDGSJiJxQ3Fzc2PFt7FFORQ/srB7GbFMPbRdMO7QCY2OM2TVhIKstDGS1hYs91a9iJbg1BsnGQFkMw9ar52Z5SuAr0su+34y09ANYOG+0+hPqnxJj14+1685i4+Zzakr5/8vGc1i3Pl5NETmv02fy8OmMwygsNA7pOJegk+m8POU3AhER1asNHxmDWIz4xhTECj3exfoRYljxPixdf0rNJCK6NHl6Qi6UJeYCh4aWIjKyBM2bFeOy1sVo364Ina4owtVX6XHD9XrcfJMSmLc5hUbBierVzqHeAtlZc45i/oI4NQV8M/8Yvpx7VE0ROa9DhzIxZtxe5OcbA9fjx7NlOjNLL9NERFRfTuHoAePZyL7djScV9Ow7VE6Q3bN8K0zfQIiISIvqLZAlIiIiqlsncXiv+LcLOlQ1dDgmBt3Ev3vjcExmEBGRVjGQJSIiIiIiIk2pdrGnqBZdkXBa/lnTKpZed++ALXKebEX97m2Old/foaZqZ8trtHe9KmJZ5lylrA2x59Cr7yY1ZRJ/agiaRvmpqZpd6vewMpZlwrLM2VrWuVN74OZm6SYrRlqoF8syqfK68oWehmK9/l1UXoYvqsXVuDcxA7MrLPhUUlKCljE3qc8wl19QgJycPAQEBMBDLClayfDhD2PgfQPUlLnEpBQ0ibR+cR5brrP2mpLSUhhKgdS0NLuXVYb1MrH2mtJSg6xbWlo666VivUwcdS+Wf/8DtmzZij9/W63mWM5e/2+ot1WL77t/K9auj0dRkXHBHC8vdxnILlty4ZwWImeycdM59B+0FYWFJTAonx53d7HHlzvijgyyOJAlIiI7qCWQBbbjSZ/HMMtwtdnKxfHnql7AZPuOvZgzdzG+nvuRmmMuMCgAAf4N1ZR2iJVixUq47WKce1VVa6Wf1yEjIx9tLmus5riGtAwdMpU2i2ntYvVKV+qVrdSrlWvVKyU1D7m6QrRuEaLmuIYvZi/A0aMnMPNT7iMrcfsd0jJuv0NE5Gy2Y5T3o2Y9rmaUQPemy9/GbkN1ga45br+jLdx+R1u4/Y62zPh8Pg4fOYbPPnGeQJZzZImIiIiIiEhTGMgSERGRi2iFDl3Fv/twuKr9deLijHvMdo1BG5lBRERaxUCWiIiIXERL9BnURZ7NXr1d/lvRhtWLAAPQbdAdqGp3nsoSk1ORmJiiplzHyZNnEBu7WU25jmNxJ7B58zY15TqOHDmGbduMU/FcyaHD/2L7jl1qynUcOHAYu3b9rKZcx5mz55QjQU05BwayRERE5DJievUx7hU751GMipVZRrGvoNccEcd2weBeLdXMmiWcS0JCQrKach1xx09izdr1asp1HD0ah3UbNqop13Hw0FHEbtqiplyHCPg2bXK9Pzzs//MfbHXBPzycOhWvHOY7ztQ3BrJERETkOmIex/ypaq9s3xZw81aPvotkXrcpH124CBQREWkOA1kiIiJyKTFjVsCweqiaMhm5+jR+fo47JBARuQIGskREROR6erwLg/602TGrB+CmPkxERNp20fvI7tmbivz8YjVlna3bEzH5vb/k+cRXO+P225rIc2s1aOCJbl1daw8qsr8zZ/MQF5etpqzXb+AW5OYW48pOIZg29Xo113pXdQ5BSIiPmiIiImcx+b3PMO2TuUhN3K/muIYlSzfg89kLsHOLcbi1q/h6/gos/m41Nq37Ws1xDZ/P/g7rY7dhzQ+z1BzX8OnMhdi2fTdWLJuh5riGDz6ci/1/HsTiBR+pOa5hyNCn5T6yf+/bpObUv4sOZFu3XYaTp3LVVP2IuSwQxw4PVFNElpn60QFMePk3NVV/Nq67G3ff1VRNERGRs2Agqy0MZLWFgay2MJC1EwayZAsGskREVJPRz/4Xc75agptuvFbNcQ0pKRlISEzGVZ07qDmuISkpDckp6eh8ZTs1xzUkJKQiPeM8Ol3RVs1xDefOpeB8ZhauuNy1dnU+czYJubl56NjhMjXHNRw6dAyenh44d7r+vzuXqTaQjWrRFQmn96qp6mktkLW0XpXZch3LMudsZWkxkL2U26sylmWOZZmIa86d2gM3N+tmQ2qhXizLxNayrHlvzJu/HFOmzZYB0vIlM9Vcywx6YLTV1wi2XGftNbv3/IFVazbh+ImzLlWvHTv3YMu2n3Hk6Ambylq2eIbVvzccUa9Nm3dh769/4u9/jti9rDKOqNf62O2y53L/n4ecvl7WvDdWrt6EY3Gn8IvSZo6ol6PuxcJFK/Dt4pXIzz6q5ljOXv9vuOge2QGDtiExSaemrFNaakBxcak89/R0h7u7bUswNI3yw/dL/6OmiCyzcPEJfDrjkJqynl5fIv8Vv9i8vGxfN+2Tj27ADddzjjcRkbPZuGknpk2fi9i189Uc17Bu/TY5tHjtStcagvv9ig1YvGQVln/3hZrjGhYqwcMGJej7dt4nao5rmLdgObbv2INv5n6o5riGWV8ulAH6FzMmqzmuYcbn8+XQ4s8+maTm1L+LDmSJiIiIXBEDWW1hIKstDGS1xRkDWW6/Q0RERERERJrCQJaIiIiIiIg0xS6BbHp6IQ4fybLLIX42kb2IedtVve/q4og7bvuetUREREREZGKXObLvvv83Xp34h5qqW+9PvhYvju+kpojqVnZ2EYJCv1VTdatF84Y4FTdYTRERkbPjHFlt4RxZbeEcWW3hHFkiIiIijbjn7ttcLogVevf6T3kQGzd9ANy8W+DG6adkWssGDuhpURCrtToPe7C/RUGs1ur1yMODLApiK9ZLCyvUjnpimEVBrNba6+mnhtcYxJbX55OTao79MZAlIiIiqij2FfmFrOIxKhaa+BINbMeoSq/9guPWuYhTn+301LYQ979WynPdfczratF19aFCvap/X2mkLav4vLh5D8DHtb2waj5nTsPqejl/e5UFm5WPGoNpJ24nuwSygYHeaN6soV2OwEAvtRSiuif2hK3qfVcXR1SUn1oKERE5K/lFr+8iNWUyu28L3OTAngYSlMCgiraoSlm7GSpFhaLdnK/Hy/J6ObvqPi/APozrWP29r+lz5gztZWu9nJmoU5vx+9SUuT3jb6syyHb2drJLIPv0U+1x+vhguxxPjmyvlkJU9wICPKt839XFsXtXH7UUIiJySnFzMVz9ojdy9WkY9OqxeqjM2zPh+dp7mZzGUKwve/2Vj12PI0Z9ljOKm36f2vPzKGareTWq2G6rTpnqWdZu48c5RbvJoMCaepVz8rbs+jqOmb2unZjW1fjQnvGzsMF4alLb58xJ2svqepVz4va6oE7Kod537H0bUyr2tGqgnTi0mIiIiEix4aO3sUecjPgGs3rILKMe72L9CMAN+7B0vfZ6YlxdxXb7ooebzJPUdhO9aGw3+4gZs6KK4Kwlxu76BiPl+SKsrDQMdcO0STV+zpyhvWypl7Oruk6K8vsO/POv6b7X9vvQGdqJgSwRERERTuHoAePZyL7djScV9Ow7VESy2LN8q3bml16MWNN8U0cPIYwZ80N570/ZF+zqVWq3CnGsINtNYVG7xb6q9pjap84ykLC4XnWowhxHx7VlK3RQey/NWfA5U1jWXs5UrzpUsV4Omc5gapNObVsaTzTSTg4LZMWchfPn9VYdlec5ENWXvLziKt+j1R0FBSXqlUREpA0ncXiv+LcLOlQ19i8mBt3Ev3vjcExmuLC4ubixr5hv2gXTDp3G7jFlX26dkXm7VYpjLW83pc439VuonGihzlZQ29Lx9aru83QSR+ric+Z09aojlev1XCtjvh1tGH0bxok6dX0dE8p7Xuvo96Gd26naQDaqhW1/bqjuuoyMQoRELLTqyMrSq1dXzZbXWNf1qgnLMqflsh4f+VOV79Hqjg+nqX/GqsaleA9rwrJMWJY5W8sy2PCXUC3UyxYsy0Rcc+m8Nxahl9oLUl1vSJXXiS+eHcWQwi746OAPGFvpS2z916t2Vl+n1NlHqfNuGbivuKDONXFMvWpvyyqp9RJt6fB6xW5S5wG3R7tayrW1vRxZr/LfGxbVy7HtZUudNow2vbZec4BuU3daNH/XqrIq/C4JDEu0qp0ES8qqNpBNOC3DcKvZep0tbCnLkfViWeZctSxb8B6aY1kmLMucrWWJFcitpYV62YJlmYhrqn1vxJ3AP/Lkwi+osqyY1ugk+/uO4KgFY4sdXS9LVF6Z9ILrKnzxFF+kx7W58F45Xb2qaDez62S7CdW0m1pnvVLnqgL32titXrUoa8tj1f1dpkK9rA32hIur1yl8PNm40m23qaPQU56pZHuJF33x7eXIehl/b9RQr1pUtypwuYuoly11quyCIcLV/D4sL8vCdir7XZJ1zrb7XhvOkSUiIiJyGd0xS52HWfE4NrWL8eG9b2N4lb1DWzFKfvEUK5RaHyBoU6U6VxG416/a2/KR6VXNoazftiwfqjrimzoeSroVTzp1vaprr2uMDzvRZ6/nzAqvUaxCrLy2Nt6v1LASszW2Oaw+Dg1kvbzcrDqInIWHR9Xv0eoO8XwiItKQWnsYLuxJ0hKx0FBZAFTVAi17xr+tDpm009w/e7Go3YQL261ynbXyf26ztvx+m1O1pdhiSAxVldu8zLxwkSBje4k7ffHt5UhiS6ga61UDsXiZU3/2ylchXoReo7fLrIv6XE1wXH0cFsg2buwDfd6jVh3Bwd7q1UT1a+H826p8j1Z3vPzileqVREREziGmbU178Q/FNPllex/GdayrnhlnZ17n9RpaZdQZ21IEsW3kvqNDsd4u+6UOxUdT6qdebcf/oZzZXi9n/+yVrUKMAyeqH/5sMcfVh0OLiYiIiMq31diHw1X2QMTJoXLoGoM2MsO1iDl/Y8dMwzR5DxahV03zL52Kebtd8JJraLfKde5921d18CW+/lXVlvauV3kQK3os9e/WMH+0Fdrb+DmT9XqufuplqLVetquP9qos7t8j6lkZ238fdpsy0mH1YSBLREREhJboM0j0IgCzV6vD6yrYsHqRjJK6DbrDDj1NjiHrIFzRupo6tMTYXd9gpDitdv6ls6nUbpUi2bI6V99u5nWueg6j8zG1Zat6r5dYAbc8iK21x1Jpr4G1fM4UztBeFev1786L62G29rPn2PfhKaxdLnrSFeWvz4Lfh4r6bicGskRERESKmF59jHsjznkUo2JlllHsK3J+nAFdMLiXo/artI3cVqNsnlsFIl/O8VPqMO35mub4dcesQ6/L+7Bnwu3m98FJVWy3J2MrRLJqu4k619xuxjrf6CbmK97mNHW2pC0/GmdhW9qpXuWvZcQ3Fm3fIsT06l3j58zS9nJkvSxZB6za9nq6ZXm9LP7sqfWqu0ER2zGqmm2AyhexqvT6avt96AztxECWiIiISIh5HPPl3C5gdl/TPotuckN/MWTuI22s5qt88Sx/7eph/OKp1GHqtNrroN4H8d19dt8B+NjB4xzFwjqVX7epPap4PRXbrV/L8mvL283COs+bYlxd1l51FsNUq6qXe3X1Empry9oiLLP3dF3X6xSOlm2bX8XrNB2V5knW9jmz4j0qOE29hKra60tjOGpTvep4fL8IKC94fer76YIVhp2+nRjIEhEREZUTK8LK7SgqGbn6NH5+rpWacl49Z+5U56ZVNhTr9act3g5F3Id1T4ggSSzYUvdfQOtaWbtV3iZYtJvldf5BXb3VOepsSVta0FEo740z1Uuo6XNmzXtUa+1liYr1ev7y++qoXt0xS1/z65vVQ01W4Ozt5GbQn67bUJ+IiIiIiIjIjtgjS0RERERERJrCQJaIiIiIiIg0pdpANqpFlYOoa2XLdSzLHMsyYVnmWJYJyzLHskzENQaD9bNmtFAvW7AsE3EN3xsmLMtEXMP3hgnLMhHXOPN7w9H3whb2KotzZImIiIiIiEhTOLSYiIiIiIiINIWBLBEREREREWkKA1kiIiIiIiLSFAayREREREREpCkMZImIiIjokhM3vQncvJubjluDEKc+RkTOj4EsEREREV1SRBDbZryXmiIiLWIgS0RERESXED9MUYPYkavPwKBXj11ZiJG5RKQFDGSJiIiI6NIR54V/xL9dszChh8whIg1iIEtERERElw4lkN0j/r2iiD2wRBrGQJaIiIiILgkbRjeHW18/Y2JOaIXFnkKx3mBaAOrG6cahx/L56uMbZI4qLgg3ll9bzXMUFywoJZ4Tq5Y7Wn0dqrKyRsWqGRVVc41Uy2sx/7l+GFXN86pUVm6F48bpDfDxrcbzKl+rorzeXECL7IiBLBERERFRRUeMwWGvOWq6AhkYdgwy9uqa8UOv8uDOSwZ7Fy4opTynLJCuAxuetuS1qFaLoDQUs9WkkXheVcGs8fWXB/0V7BkfhnFBhfJ89uSqAlUvrF2uzkF+NYu93mQ3DGSJiIiI6JLQc+YZGFbrjIkRaaaFnvRp6OVmzBb2zPHDnq5ZOFbh8Z5KvuhplMGt2WPqof7c2X1DMXd6KMbtFakiTDtk/rxjU4vk8y6WeC29v1ROanktv8sz5Vypk/lz0zBSPuKHSWoPdJm48tdfaUEs5RCv362Z3njtXj+srRzJxvlhqbiWc5DJzqoNZKNadFXPrGPLdSzLHMsyYVnmWJYJyzLHskzENQaDQU1ZTgv1sgXLMhHX8L1hwrJMxDUV3xvdpiZWsYqxutqxCAbVx8zK6pGG9SPEiQ/myp5YEcQmYmylLslbJ+9Uzy6G8bUYKrwWM+WvJRnx2TLHGJCaPVeHCWpQvedIxUDWD50rrOo8q1IwGjMmEaUzz6vXemHpeuNzy+5F3Ho/2UPcbZDOot5YW9vLFraW5cy/Nxx9L2xhr7LcDPrT1rcMEREREZEWiXmfYsis6JGdqfbOqkQvpxgOLALZ3WMq9ZyKuahVDuO9UIRyJFcXZFZTvhiyLHp7qwoeL7jGitfS8x7lZ2+08OdWzFMC3fVqT3SVyl9DxeeJObhi+HLVQTxRXeLQYiIiIiKi2pStdmyBZPEfe66KbMVrsVnXIrRRT6sUo8Ng2Wnmh5Vlc3Fj/YxzcEdkMYglu2MgS0RERERkKbO5tVUcZXNwHaG216IczzZTn1vnijD2VWNdZ68WPbjABvXfkX0deA/oksVAloiIiIioNjFF6Cb+PeBV/1vKOOK17PXCMfW0Wj10xkWf5vhhg+iZVRfC4iJP5AgMZImIiIiIaqMEj53Ev3uDMKWa/VOlsiBTBnfW++ffigsvVcPS12KLsuC04pDhaunQXy4qZdzGRwwrtnSRJ6KLxUCWiIiIiKhWplV+Z/dtjhsrbVkjyQWQ/NBpsEgowd2t5vusisWkjAspXainOhx3z/ggswBY7lt7wTXG1yJ2DKrxtXg3wUp11WLLlQWnxp9tthetEBsK99Gm19Pz+Sxj4C7pMLHyIllEdsJAloiIiIjIAmLrGeO2NiLgVIJSbyXIrHioKwl3eEwN7vYGoU2Fx8WKyNWq0BPaq8I1YiXjbl0vDA7Fa1n3hPG8ptdii54zEzFN3f1EBLNmP1cJqs22PClf9EkxQlf9KsdEdYyBLBERERGRhXrOFIsopalBZyViyx19IsbekYXdVTxH7k9b7WJQOsy64Bqxtc0Z7H616l7OnjNqfy39A9W0VYowdpfys6t4raIOpZW2LSrDRZ7IkbiPLBERERGRo1Szj6xmle0nW92+uUR2wh5ZIiIiIiKyyYaPjEOYucgTORoDWSIiIiIisl5cECaJLXe4yBPVAwayRERERERktbLeWC7yRPWh2kA2qkXZ8mPWseU6lmWOZZmwLHMsy4RlmWNZJuIag8H65R+0UC9bsCwTcQ3fGyYsy0Rc47D3xqgYGPRnrJ4f64z30LjwlbEu9i6rIkeX5cy/Nxx9L2xhr7K42BMRERERERFpCocWExERERERkaYwkCUiIiIiIiJNYSBLREREREREmsJAloiIiIiIiDSFgSwRERERERFpCgNZIiIiIiIi0hQGskRERERERKQpDGSJiIiIiIhIUxjIEhERERERkaYwkCUiIiIiIiJNYSBLREREREREmsJAloiIiIiIiDSl2kA2qkVX9cw6tlzHssyxLBOWZY5lmbAscyzLRFxjMBjUlOW0UC9bsCwTcQ3fGyYsy0Rcw/eGCcsyEdc483vD0ffCFvYqy82gP219yxARERERERHVEw4tJiIiIiIiIk1hIEtERERERESawkCWiIiIiIiINIWBLBEREREREWkKA1kiIiIiIiLSFAayREREREREpCHA/wM73Rsl/UgvwQAAAABJRU5ErkJggg==;" vertex="1" parent="1">
          <mxGeometry x="1177" y="91" width="946" height="669" as="geometry" />
        </mxCell>
        <mxCell id="UaeJ48DDTv_ZZKUGCizk-2" value="&lt;b&gt;Creates the parameters in the SPICE backend.&lt;/b&gt;" style="shape=callout;whiteSpace=wrap;html=1;perimeter=calloutPerimeter;fontSize=14;fillColor=#f8cecc;strokeColor=#b85450;" vertex="1" parent="1">
          <mxGeometry x="1350" y="30" width="170" height="80" as="geometry" />
        </mxCell>
        <mxCell id="UaeJ48DDTv_ZZKUGCizk-3" value="&lt;b&gt;Original simulation command.&lt;/b&gt;&lt;div&gt;This simulation is now iterated&lt;span style=&quot;background-color: transparent; color: light-dark(rgb(0, 0, 0), rgb(255, 255, 255));&quot;&gt;&amp;nbsp;by the Parameter Sweep.&lt;/span&gt;&lt;/div&gt;" style="shape=callout;whiteSpace=wrap;html=1;perimeter=calloutPerimeter;fontSize=14;fillColor=#f8cecc;strokeColor=#b85450;direction=south;" vertex="1" parent="1">
          <mxGeometry x="1760" y="110" width="300" height="60" as="geometry" />
        </mxCell>
        <mxCell id="UaeJ48DDTv_ZZKUGCizk-4" value="&lt;b&gt;Capacitance value defined using SPICE parameters.&amp;nbsp;&lt;/b&gt;&lt;div&gt;&lt;br&gt;&lt;/div&gt;&lt;div&gt;Note the curly braces - these are required for parameters and math operations to be parsed correctly!&lt;/div&gt;" style="shape=callout;whiteSpace=wrap;html=1;perimeter=calloutPerimeter;fontSize=14;fillColor=#f8cecc;strokeColor=#b85450;direction=east;size=60;position=0.46;position2=0.36;base=30;" vertex="1" parent="1">
          <mxGeometry x="1490" y="360" width="240" height="190" as="geometry" />
        </mxCell>
        <mxCell id="UaeJ48DDTv_ZZKUGCizk-5" value="" style="rounded=0;whiteSpace=wrap;html=1;fillColor=none;strokeColor=#FF0000;strokeWidth=5;" vertex="1" parent="1">
          <mxGeometry x="1400" y="550" width="270" height="60" as="geometry" />
        </mxCell>
        <mxCell id="UaeJ48DDTv_ZZKUGCizk-8" style="edgeStyle=orthogonalEdgeStyle;rounded=0;orthogonalLoop=1;jettySize=auto;html=1;exitX=1;exitY=0.5;exitDx=0;exitDy=0;entryX=0.5;entryY=1;entryDx=0;entryDy=0;strokeWidth=3;strokeColor=#FF0000;" edge="1" parent="1" source="UaeJ48DDTv_ZZKUGCizk-6" target="UaeJ48DDTv_ZZKUGCizk-7">
          <mxGeometry relative="1" as="geometry" />
        </mxCell>
        <mxCell id="UaeJ48DDTv_ZZKUGCizk-9" value="manipulates" style="edgeLabel;html=1;align=center;verticalAlign=middle;resizable=0;points=[];" vertex="1" connectable="0" parent="UaeJ48DDTv_ZZKUGCizk-8">
          <mxGeometry x="0.0667" y="-1" relative="1" as="geometry">
            <mxPoint x="31" y="-1" as="offset" />
          </mxGeometry>
        </mxCell>
        <mxCell id="UaeJ48DDTv_ZZKUGCizk-6" value="" style="rounded=0;whiteSpace=wrap;html=1;fillColor=none;strokeColor=#FF0000;strokeWidth=5;" vertex="1" parent="1">
          <mxGeometry x="1190" y="270" width="170" height="30" as="geometry" />
        </mxCell>
        <mxCell id="UaeJ48DDTv_ZZKUGCizk-7" value="" style="rounded=0;whiteSpace=wrap;html=1;fillColor=none;strokeColor=#FF0000;strokeWidth=5;" vertex="1" parent="1">
          <mxGeometry x="1390" y="220" width="130" height="40" as="geometry" />
        </mxCell>
      </root>
    </mxGraphModel>
  </diagram>
</mxfile>
